<?xml version="1.0" encoding="UTF-8"?>
<!DOCTYPE svg PUBLIC "-//W3C//DTD SVG 1.1//EN" "http://www.w3.org/Graphics/SVG/1.1/DTD/svg11.dtd">
<!-- Creator: CorelDRAW X7 -->
<svg xmlns="http://www.w3.org/2000/svg" xml:space="preserve" width="350.05mm" height="100mm" version="1.1" style="shape-rendering:geometricPrecision; text-rendering:geometricPrecision; image-rendering:optimizeQuality; fill-rule:evenodd; clip-rule:evenodd"
viewBox="0 0 35005 10000"
 xmlns:xlink="http://www.w3.org/1999/xlink">
 <defs>
  <style type="text/css">
   <![CDATA[
    .fil0 {fill:#008CEB}
    .fil1 {fill:#FCFDFE}
   ]]>
  </style>
 </defs>
 <g id="Layer_x0020_1">
  <metadata id="CorelCorpID_0Corel-Layer"/>
  <g id="_775368424">
   <path class="fil0" d="M6441 3036c402,-50 787,32 1103,187 142,70 308,156 361,297 52,139 22,1714 22,1932l-1 985c-10,138 -106,62 -170,26 -1910,-1058 -3696,1326 -5508,193 -67,-41 -118,-83 -130,-194 -15,-127 -3,-1744 -3,-1955 0,-99 -24,-904 29,-953 56,-51 150,41 202,73 1326,818 2773,-426 4095,-591zm-6441 1964c0,672 140,1304 386,1916 14,36 28,76 48,116 180,371 214,444 443,790 403,608 1120,1266 1785,1598 76,38 135,67 210,105 555,280 1371,475 2005,475 550,0 816,-12 1348,-145 457,-115 787,-251 1191,-467 41,-22 58,-29 97,-53 282,-171 546,-347 792,-565 30,-26 45,-48 77,-73 66,-53 103,-93 163,-152 49,-50 106,-100 150,-152 154,-184 248,-290 403,-500 43,-59 82,-121 121,-181 397,-597 632,-1271 746,-1980 97,-606 55,-1387 -97,-1956 -110,-413 -155,-512 -316,-890 -61,-142 -136,-268 -209,-394 -445,-775 -1049,-1358 -1813,-1816 -671,-403 -1579,-676 -2366,-676 -545,0 -852,12 -1375,145 -260,66 -448,133 -689,229 -74,29 -149,61 -219,96 -621,311 -1116,665 -1590,1177 -30,33 -36,49 -68,82 -192,201 -439,578 -578,820 -37,63 -72,126 -106,195 -251,505 -445,1103 -499,1666 -17,180 -40,390 -40,590z"/>
   <path class="fil1" d="M6441 3036c-1322,165 -2769,1409 -4095,591 -52,-32 -146,-124 -202,-73 -53,49 -29,854 -29,953 0,211 -12,1828 3,1955 12,111 63,153 130,194 1812,1133 3598,-1251 5508,-193 64,36 160,112 170,-26l1 -985c0,-218 30,-1793 -22,-1932 -53,-141 -219,-227 -361,-297 -316,-155 -701,-237 -1103,-187z"/>
   <path class="fil0" d="M19247 4973c0,-579 72,-869 414,-1175 592,-529 1764,-202 1764,928l0 644 -2165 0c0,-149 -13,-247 -13,-397zm-1096 -124l0 2713c0,31 9,41 41,41l1027 0c71,0 45,-178 38,-229 -16,-114 -10,-484 -10,-621 0,-107 13,-155 13,-260l2151 0c0,336 19,648 13,1001 -1,58 -14,109 42,109l1014 0c63,0 41,-110 41,-178l0 -1617c0,-1251 126,-2047 -785,-2859 -274,-245 -811,-511 -1325,-511 -581,0 -957,133 -1384,439 -306,220 -596,618 -727,984 -99,275 -149,612 -149,988z"/>
   <path class="fil0" d="M32726 3562c253,0 352,-5 594,118 355,181 584,567 584,1019l0 671 -2164 0c0,-573 -90,-1254 463,-1620 145,-95 330,-188 523,-188zm-2096 1315l0 2685c0,31 10,41 41,41l1069 0 0 -1110 2151 0c0,194 13,339 13,534l0 562 1096 0 0 -1808c0,-1164 91,-1810 -518,-2564l-167 -176c-130,-98 -162,-166 -398,-301 -604,-345 -1381,-415 -2031,-87 -402,202 -688,457 -916,824 -252,404 -340,873 -340,1400z"/>
   <path class="fil0" d="M13630 6479c-151,0 -474,17 -602,-13l0 -2904c625,0 1087,-122 1659,340 238,192 491,589 491,1016 0,494 -116,834 -455,1174 -256,257 -585,387 -1093,387zm-1698 1069c0,32 9,41 41,41l2027 0c292,0 675,-159 914,-292 73,-41 122,-65 190,-111 93,-62 270,-183 345,-258l287 -316c278,-343 472,-838 527,-1281 34,-273 27,-542 -33,-821 -128,-591 -444,-1130 -905,-1506 -119,-97 -238,-163 -363,-240 -205,-124 -659,-312 -907,-312l-2123 0 0 5096z"/>
   <path class="fil0" d="M24397 7096l14 479 1069 0c36,-156 20,-967 14,-1192 -2,-67 -13,-68 -15,-136 -8,-270 -4,-1170 14,-1385 12,-146 6,-321 33,-473 105,-602 910,-1073 1561,-709 121,68 266,191 346,298 235,314 238,537 238,1063 0,777 13,1652 0,2425 -1,61 -16,123 41,123l1042 0 0 -1274c0,-263 -29,-1703 -10,-1860 12,-92 -14,-224 -40,-324 -39,-155 -137,-417 -217,-550 -67,-114 -136,-238 -224,-338 -34,-38 -53,-67 -88,-103 -135,-136 -250,-243 -416,-351 -762,-496 -1741,-456 -2460,72 -159,117 -308,261 -428,421 -66,87 -118,159 -172,253 -181,315 -274,641 -274,1013 0,289 -14,550 -14,849 0,569 -14,1118 -14,1699z"/>
  </g>
 </g>
</svg>
