<?xml version="1.0" encoding="UTF-8"?>
<!DOCTYPE svg PUBLIC "-//W3C//DTD SVG 1.1//EN" "http://www.w3.org/Graphics/SVG/1.1/DTD/svg11.dtd">
<!-- Creator: CorelDRAW X7 -->
<svg xmlns="http://www.w3.org/2000/svg" xml:space="preserve" width="451.19mm" height="100mm" version="1.1" style="shape-rendering:geometricPrecision; text-rendering:geometricPrecision; image-rendering:optimizeQuality; fill-rule:evenodd; clip-rule:evenodd"
viewBox="0 0 45119 10000"
 xmlns:xlink="http://www.w3.org/1999/xlink">
 <defs>
  <style type="text/css">
   <![CDATA[
    .fil0 {fill:#00ABD4}
    .fil1 {fill:#050505}
    .fil2 {fill:#FFFFFE}
   ]]>
  </style>
 </defs>
 <g id="Layer_x0020_1">
  <metadata id="CorelCorpID_0Corel-Layer"/>
  <g id="_564598616">
   <path class="fil0" d="M3160 3452c245,345 66,221 638,246l2398 -18c1132,8 1629,303 1638,1438 9,1012 -119,2006 -912,2266 -635,209 -2296,192 -2998,142 -1243,-88 -1691,-203 -1826,-1428 -317,-2872 30,-3712 2304,-3754 1502,-28 2010,63 2258,907 -730,30 -3069,-211 -3500,201zm-3160 1072l0 833c0,2239 2287,4524 4524,4524 1773,0 2663,-238 3873,-1365 3138,-2919 961,-8516 -3159,-8516l-595 0c-2305,0 -4643,2234 -4643,4524z"/>
   <path class="fil1" d="M14048 4643c0,-991 192,-1786 1666,-1786 1917,0 1652,2317 959,2744 -1303,802 -2625,-13 -2625,-958zm-1548 -595c0,1365 288,2328 1663,2979 1261,597 2240,215 3099,-360 0,1605 -662,1785 -1905,1785 -806,0 -976,-292 -1428,-595l-1100 1043c409,130 782,542 1215,746 1793,846 4766,283 4766,-2860l0 -5357 -1548 0 0 595c-2471,-1655 -4762,428 -4762,2024z"/>
   <path class="fil1" d="M29286 5952c-1842,0 -1548,-1363 -1548,-2142 0,-1037 2976,-1688 2976,595 0,504 -116,784 -377,1051 -217,221 -642,496 -1051,496zm-1667 -3928l0 -476 -1548 0 0 7976 1667 0 0 -2381c0,-455 37,-44 -119,-357 494,132 1236,984 2966,346 2497,-921 2616,-5703 -1418,-5703 -707,0 -1122,310 -1548,595z"/>
   <path class="fil2" d="M6757 6145c-354,-157 -430,-523 -285,-980 793,-149 522,624 285,980zm-3597 -2693c431,-412 2770,-171 3500,-201 -248,-844 -756,-935 -2258,-907 -2274,42 -2621,882 -2304,3754 135,1225 583,1340 1826,1428 702,50 2363,67 2998,-142 793,-260 921,-1254 912,-2266 -9,-1135 -506,-1430 -1638,-1438l-2398 18c-572,-25 -393,99 -638,-246z"/>
   <path class="fil1" d="M34286 5595c0,-738 1252,-474 2381,-1071 0,894 -33,1154 -766,1378 -463,142 -1615,305 -1615,-307zm-1548 -2143c595,14 953,225 1548,238 81,-976 1970,-1447 2262,-357 -389,531 -1611,517 -2291,686 -2798,695 -1375,4262 1713,3141 313,-113 566,-326 816,-493l0 476 1428 0c0,-3611 632,-5714 -2976,-5714 -986,0 -2391,718 -2500,2023z"/>
   <path class="fil1" d="M22619 5952c-2275,0 -2441,-3095 0,-3095 371,0 784,269 966,462 757,802 403,2633 -966,2633zm-3333 -1785c0,4402 6309,4045 6309,238 0,-4059 -6309,-3798 -6309,-238z"/>
   <path class="fil1" d="M39524 9524l1785 0 1905 -3929c159,-317 321,-631 478,-950 172,-350 301,-726 473,-1075 252,-512 831,-1493 954,-2022l-1667 0 -1666 3571c-368,-269 -292,-398 -479,-831l-1307 -2740 -1667 0c289,1239 1790,3668 2355,4920 225,498 64,626 -170,1073 -363,694 -646,1325 -994,1983z"/>
   <path class="fil0" d="M6757 6145c237,-356 508,-1129 -285,-980 -145,457 -69,823 285,980z"/>
  </g>
 </g>
</svg>
