<?xml version="1.0" encoding="UTF-8"?>
<!DOCTYPE svg PUBLIC "-//W3C//DTD SVG 1.1//EN" "http://www.w3.org/Graphics/SVG/1.1/DTD/svg11.dtd">
<!-- Creator: CorelDRAW X7 -->
<svg xmlns="http://www.w3.org/2000/svg" xml:space="preserve" width="100.32mm" height="100mm" version="1.1" style="shape-rendering:geometricPrecision; text-rendering:geometricPrecision; image-rendering:optimizeQuality; fill-rule:evenodd; clip-rule:evenodd"
viewBox="0 0 10032 10000"
 xmlns:xlink="http://www.w3.org/1999/xlink">
 <defs>
  <style type="text/css">
   <![CDATA[
    .fil0 {fill:#E22429}
    .fil1 {fill:#FDFCFD}
   ]]>
  </style>
 </defs>
 <g id="Layer_x0020_1">
  <metadata id="CorelCorpID_0Corel-Layer"/>
  <g id="_775375048">
   <path class="fil0" d="M1425 8122c555,-141 1138,-251 1720,-343 1525,-239 3242,-405 4793,-351 288,9 566,25 852,53l86 9c7,2 9,3 15,5l10 4c-176,8 -353,7 -530,14 -1167,43 -2306,163 -3457,329 -959,138 -1786,302 -2711,535 -209,53 -268,34 -431,-60 -59,-34 -117,-64 -177,-97l-170 -98zm5576 -1913c188,-32 348,97 331,282 -16,160 -154,288 -303,314 -183,32 -357,-96 -333,-280 22,-163 144,-289 305,-316zm-3830 -55c-33,-11 -513,-12 -581,-7 -34,2 -33,7 -43,34l-65 152c-26,61 -58,149 -88,205 -33,62 -160,43 -249,44 -366,2 -384,44 -277,-188 31,-66 61,-132 90,-197 234,-534 496,-1079 726,-1610 77,-176 120,-231 352,-231 193,1 394,-41 439,144 18,76 29,171 43,252 96,571 208,1188 293,1749 18,120 -102,90 -202,90 -421,0 -388,33 -409,-179 -7,-70 -13,-201 -29,-258zm2624 -1267c254,-16 526,20 753,93 74,24 52,74 42,153 -28,222 -150,1275 -179,1322 -66,107 -507,176 -682,178 -641,10 -881,-233 -799,-889 66,-524 321,-825 865,-857zm-1487 30c18,-5 413,-7 446,-2 73,10 43,102 35,166l-131 983c-81,644 -169,1021 -816,1196 -91,25 -115,43 -146,-46 -17,-48 -106,-308 -108,-340 -6,-102 360,-60 454,-438 37,-150 143,-958 171,-1166 9,-67 18,-130 27,-197 9,-67 3,-138 68,-156zm2726 -285c38,-12 207,-6 261,-6 319,0 276,-69 171,459 -58,291 -119,583 -177,874 -20,99 -27,81 -185,81 -57,0 -215,14 -239,-21 -25,-37 24,-399 31,-472l70 -722c10,-109 -2,-173 68,-193zm-2412 -452c187,-32 331,107 296,299 -27,150 -156,279 -304,305 -184,31 -337,-111 -297,-296 33,-155 143,-281 305,-308zm-216 -119c14,-135 40,-281 60,-416l123 -826c21,-126 35,-267 137,-334 137,-89 665,-99 854,-77 279,34 459,187 518,431 49,203 -34,625 -67,844 -10,63 -45,381 -74,402 -27,20 -401,13 -464,11 -100,-2 -67,-80 -56,-161l91 -617c17,-109 61,-323 -9,-403 -71,-82 -260,-82 -387,-57l-175 1227c-16,-8 -36,-26 -54,-38 -247,-165 -452,2 -497,14zm-816 35c-56,0 -63,-18 -56,-72l169 -1207c10,-72 20,-144 30,-217 13,-88 -2,-157 93,-157 522,0 500,-39 472,167l-188 1333c-13,92 0,153 -100,153l-420 0zm4487 151c82,172 -66,133 -267,133 -287,0 -240,32 -317,-135 -25,-52 -47,-98 -71,-152 -115,-260 -240,-516 -357,-776 -11,-25 -23,-50 -36,-78 -51,-112 -63,-70 53,-205l417 -487c12,-16 42,-51 53,-62 17,-18 43,-28 80,-29 148,-5 303,0 452,0 124,-1 62,73 22,112l-268 298c-56,68 -223,236 -265,298l504 1083zm-3966 -2538c189,-35 332,105 301,291 -25,154 -151,283 -299,311 -184,36 -342,-104 -304,-291 32,-159 145,-282 302,-311zm-1964 180c19,-7 450,-8 494,-4 86,10 50,112 41,178l-191 1321c-11,75 -32,151 28,189 50,31 606,16 740,16 147,0 195,-19 184,64 -8,65 -50,391 -66,430 -20,50 -165,28 -226,28l-751 0c-273,-2 -541,-205 -520,-481 11,-141 40,-301 59,-444l147 -1107c13,-99 6,-171 61,-190zm4168 2211c-79,0 -54,-49 -45,-115l62 -447c28,-199 55,-394 83,-594l144 -1044c9,-64 -4,-104 61,-104 78,0 460,-10 505,9 11,51 -199,1497 -235,1755 -14,98 -27,194 -40,291 -7,48 -14,97 -20,146 -9,60 2,103 -64,103l-451 0zm-6315 -3202l0 8204c0,133 46,271 90,362 96,199 261,359 460,451 91,43 242,85 373,85l8173 0c256,0 484,-105 657,-278 174,-174 279,-394 279,-658l0 -8128c0,-170 -65,-391 -167,-527 -10,-13 -15,-22 -24,-33 -44,-62 -148,-161 -208,-200 -161,-107 -326,-176 -530,-176l-8167 0c-152,0 -270,38 -377,82 -71,29 -152,83 -212,131l-62 53c-156,157 -285,391 -285,632z"/>
   <path class="fil1" d="M2801 5684c-57,0 -31,-30 -17,-68l234 -593c10,-26 7,-29 31,-32 16,52 44,448 54,559 15,159 60,134 -302,134zm370 470c16,57 22,188 29,258 21,212 -12,179 409,179 100,0 220,30 202,-90 -85,-561 -197,-1178 -293,-1749 -14,-81 -25,-176 -43,-252 -45,-185 -246,-143 -439,-144 -232,0 -275,55 -352,231 -230,531 -492,1076 -726,1610 -29,65 -59,131 -90,197 -107,232 -89,190 277,188 89,-1 216,18 249,-44 30,-56 62,-144 88,-205l65 -152c10,-27 9,-32 43,-34 68,-5 548,-4 581,7z"/>
   <path class="fil1" d="M5914 6110c-134,28 -258,65 -351,-31 -136,-140 -35,-561 97,-661 110,-84 199,-75 349,-38l-95 730zm-119 -1223c-544,32 -799,333 -865,857 -82,656 158,899 799,889 175,-2 616,-71 682,-178 29,-47 151,-1100 179,-1322 10,-79 32,-129 -42,-153 -227,-73 -499,-109 -753,-93z"/>
   <path class="fil1" d="M4406 4061c45,-12 250,-179 497,-14 18,12 38,30 54,38l175 -1227c127,-25 316,-25 387,57 70,80 26,294 9,403l-91 617c-11,81 -44,159 56,161 63,2 437,9 464,-11 29,-21 64,-339 74,-402 33,-219 116,-641 67,-844 -59,-244 -239,-397 -518,-431 -189,-22 -717,-12 -854,77 -102,67 -116,208 -137,334l-123 826c-20,135 -46,281 -60,416z"/>
   <path class="fil1" d="M1425 8122l170 98c60,33 118,63 177,97 163,94 222,113 431,60 925,-233 1752,-397 2711,-535 1151,-166 2290,-286 3457,-329 177,-7 354,-6 530,-14l-10 -4c-6,-2 -8,-3 -15,-5l-86 -9c-286,-28 -564,-44 -852,-53 -1551,-54 -3268,112 -4793,351 -582,92 -1165,202 -1720,343z"/>
   <path class="fil1" d="M2147 1889c-55,19 -48,91 -61,190l-147 1107c-19,143 -48,303 -59,444 -21,276 247,479 520,481l751 0c61,0 206,22 226,-28 16,-39 58,-365 66,-430 11,-83 -37,-64 -184,-64 -134,0 -690,15 -740,-16 -60,-38 -39,-114 -28,-189l191 -1321c9,-66 45,-168 -41,-178 -44,-4 -475,-3 -494,4z"/>
   <path class="fil1" d="M4308 4917c-65,18 -59,89 -68,156 -9,67 -18,130 -27,197 -28,208 -134,1016 -171,1166 -94,378 -460,336 -454,438 2,32 91,292 108,340 31,89 55,71 146,46 647,-175 735,-552 816,-1196l131 -983c8,-64 38,-156 -35,-166 -33,-5 -428,-3 -446,2z"/>
   <path class="fil1" d="M6315 4100l451 0c66,0 55,-43 64,-103 6,-49 13,-98 20,-146 13,-97 26,-193 40,-291 36,-258 246,-1704 235,-1755 -45,-19 -427,-9 -505,-9 -65,0 -52,40 -61,104l-144 1044c-28,200 -55,395 -83,594l-62 447c-9,66 -34,115 45,115z"/>
   <path class="fil1" d="M7573 3164c42,-62 209,-230 265,-298l268 -298c40,-39 102,-113 -22,-112 -149,0 -304,-5 -452,0 -37,1 -63,11 -80,29 -11,11 -41,46 -53,62l-417 487c-116,135 -104,93 -53,205 13,28 25,53 36,78 117,260 242,516 357,776 24,54 46,100 71,152 77,167 30,135 317,135 201,0 349,39 267,-133l-504 -1083z"/>
   <path class="fil1" d="M3590 4096l420 0c100,0 87,-61 100,-153l188 -1333c28,-206 50,-167 -472,-167 -95,0 -80,69 -93,157 -10,73 -20,145 -30,217l-169 1207c-7,54 0,72 56,72z"/>
   <path class="fil1" d="M7034 4632c-70,20 -58,84 -68,193l-70 722c-7,73 -56,435 -31,472 24,35 182,21 239,21 158,0 165,18 185,-81 58,-291 119,-583 177,-874 105,-528 148,-459 -171,-459 -54,0 -223,-6 -261,6z"/>
   <path class="fil0" d="M5914 6110l95 -730c-150,-37 -239,-46 -349,38 -132,100 -233,521 -97,661 93,96 217,59 351,31z"/>
   <path class="fil1" d="M7001 6209c-161,27 -283,153 -305,316 -24,184 150,312 333,280 149,-26 287,-154 303,-314 17,-185 -143,-314 -331,-282z"/>
   <path class="fil1" d="M4111 1709c-157,29 -270,152 -302,311 -38,187 120,327 304,291 148,-28 274,-157 299,-311 31,-186 -112,-326 -301,-291z"/>
   <path class="fil1" d="M4622 4180c-162,27 -272,153 -305,308 -40,185 113,327 297,296 148,-26 277,-155 304,-305 35,-192 -109,-331 -296,-299z"/>
   <path class="fil0" d="M2801 5684c362,0 317,25 302,-134 -10,-111 -38,-507 -54,-559 -24,3 -21,6 -31,32l-234 593c-14,38 -40,68 17,68z"/>
  </g>
 </g>
</svg>
