<?xml version="1.0" encoding="UTF-8"?>
<!DOCTYPE svg PUBLIC "-//W3C//DTD SVG 1.1//EN" "http://www.w3.org/Graphics/SVG/1.1/DTD/svg11.dtd">
<!-- Creator: CorelDRAW X7 -->
<svg xmlns="http://www.w3.org/2000/svg" xml:space="preserve" width="265.19mm" height="100mm" version="1.1" style="shape-rendering:geometricPrecision; text-rendering:geometricPrecision; image-rendering:optimizeQuality; fill-rule:evenodd; clip-rule:evenodd"
viewBox="0 0 26519 10000"
 xmlns:xlink="http://www.w3.org/1999/xlink">
 <defs>
  <style type="text/css">
   <![CDATA[
    .fil0 {fill:#4E3394}
   ]]>
  </style>
 </defs>
 <g id="Layer_x0020_1">
  <metadata id="CorelCorpID_0Corel-Layer"/>
  <g id="_775394416">
   <path class="fil0" d="M4857 8095c-1634,0 -3063,-1489 -3017,-3163 46,-1663 1422,-3034 3107,-3034 1811,0 3208,1390 3208,3064 0,1736 -1415,3133 -3027,3133l-271 0zm150 1905c2767,0 4939,-2227 4990,-4946 14,-745 -159,-1463 -421,-2070 -162,-373 -568,-1044 -849,-1320 -73,-72 -87,-80 -150,-151 -613,-692 -2007,-1513 -3418,-1513l-272 0c-2614,0 -4887,2298 -4887,4842l0 301c0,1436 796,2773 1495,3423 978,908 2096,1434 3512,1434z"/>
   <path class="fil0" d="M2974 4993c0,1149 870,2108 2063,2108 1074,0 1981,-972 1981,-2048l0 -151c0,-1076 -957,-2023 -2041,-2009 -1115,14 -2003,958 -2003,2100z"/>
   <path class="fil0" d="M16219 5203c-114,738 -792,1435 -1670,1273 -736,-135 -1330,-881 -1185,-1801 116,-735 796,-1443 1690,-1265 739,147 1304,902 1165,1793zm822 0c165,-1317 -822,-2398 -1962,-2540 -1345,-167 -2385,823 -2532,1973 -174,1358 795,2427 1949,2582 1371,183 2398,-833 2545,-2015z"/>
   <path class="fil0" d="M23966 3421c894,-207 1583,501 1709,1234 158,913 -421,1641 -1125,1808 -904,214 -1587,-496 -1721,-1222 -170,-931 416,-1653 1137,-1820zm2523 1873c217,-1353 -766,-2444 -1876,-2621 -1358,-215 -2415,766 -2596,1891 -220,1369 740,2451 1857,2641 1384,236 2431,-772 2615,-1911z"/>
   <path class="fil0" d="M19961 7177c4,-6 8,-13 12,-20l83 -188c307,-719 1305,-3099 1541,-3548 138,-263 97,-338 97,-665l-1440 9 13 736 416 1c-76,296 -951,2391 -1006,2457l-1048 -2455 418 -2 4 -746c-322,0 -1585,-40 -1800,19 0,624 -76,724 132,730 338,10 292,-53 376,123l391 903c151,348 295,688 447,1028 403,904 498,1657 1320,1677l44 -59z"/>
  </g>
 </g>
</svg>
