<?xml version="1.0" encoding="UTF-8"?>
<!DOCTYPE svg PUBLIC "-//W3C//DTD SVG 1.1//EN" "http://www.w3.org/Graphics/SVG/1.1/DTD/svg11.dtd">
<!-- Creator: CorelDRAW X7 -->
<svg xmlns="http://www.w3.org/2000/svg" xml:space="preserve" width="227.58mm" height="100mm" version="1.1" style="shape-rendering:geometricPrecision; text-rendering:geometricPrecision; image-rendering:optimizeQuality; fill-rule:evenodd; clip-rule:evenodd"
viewBox="0 0 22758 10000"
 xmlns:xlink="http://www.w3.org/1999/xlink">
 <defs>
  <style type="text/css">
   <![CDATA[
    .fil0 {fill:#EE4D2B}
    .fil1 {fill:#FEFDFD}
   ]]>
  </style>
 </defs>
 <g id="Layer_x0020_1">
  <metadata id="CorelCorpID_0Corel-Layer"/>
  <g id="_770654232">
   <path class="fil0" d="M4576 3282l-77 0 0 15 -61 0 0 16 -31 0 0 15 -62 0 0 16 -31 0 0 15 -31 0 0 15 -30 0 0 16 -31 0 0 15 -31 0 0 16 -15 0 0 15 -31 0 0 15 -16 0 0 16 -30 0 0 15 -16 0 0 16 -15 0 0 15 -16 0 0 16 -15 0 0 15 -15 0 0 15 -16 0 0 16 -15 0 0 15 -16 0 0 31 -15 0 0 15 -16 0 0 31 -15 0 0 16 -15 0 0 30 -16 0 0 31 -15 0 0 31 -16 0 0 31 -15 0 0 77 -15 0 0 169 15 0 0 47 15 0 0 46 16 0 0 31 15 0 0 30 16 0 0 16 15 0 0 15 15 0 0 31 16 0 0 16 15 0 0 15 16 0 0 15 15 0 0 16 16 0 0 15 30 0 0 16 16 0 0 15 15 0 0 15 31 0 0 16 15 0 0 15 31 0 0 16 16 0 0 15 30 0 0 15 31 0 0 16 31 0 0 15 31 0 0 16 31 0 0 15 15 0 0 15 46 0 0 16 47 0 0 15 30 0 0 16 47 0 0 15 46 0 0 16 31 0 0 15 77 0 0 15 31 0 0 16 46 0 0 15 31 0 0 16 61 0 0 15 46 0 0 15 31 0 0 16 62 0 0 15 31 0 0 16 30 0 0 15 31 0 0 15 47 0 0 16 46 0 0 15 31 0 0 16 30 0 0 15 31 0 0 15 31 0 0 16 31 0 0 15 31 0 0 16 30 0 0 15 16 0 0 15 31 0 0 16 31 0 0 15 15 0 0 16 31 0 0 15 31 0 0 16 15 0 0 15 15 0 0 15 31 0 0 16 16 0 0 15 15 0 0 16 31 0 0 15 15 0 0 15 16 0 0 16 15 0 0 15 31 0 0 16 15 0 0 15 16 0 0 15 15 0 0 16 15 0 0 15 16 0 0 16 15 0 0 15 16 0 0 15 15 0 0 16 16 0 0 15 15 0 0 31 15 0 0 16 16 0 0 15 15 0 0 15 16 0 0 31 15 0 0 16 15 0 0 30 16 0 0 16 15 0 0 31 16 0 0 30 15 0 0 31 15 0 0 31 16 0 0 31 15 0 0 31 16 0 0 61 15 0 0 31 15 0 0 46 16 0 0 93 15 0 0 61 16 0 0 247 -16 0 0 108 -15 0 0 61 -16 0 0 47 -15 0 0 30 -15 0 0 47 -16 0 0 46 -15 0 0 15 -16 0 0 31 -15 0 0 31 -15 0 0 31 -16 0 0 15 -15 0 0 31 -16 0 0 15 -15 0 0 31 -15 0 0 16 -16 0 0 15 -15 0 0 15 -16 0 0 31 -15 0 0 16 -15 0 0 15 -16 0 0 16 -15 0 0 15 -16 0 0 15 -15 0 0 16 -16 0 0 15 -15 0 0 16 -31 0 0 15 -15 0 0 15 -16 0 0 16 -30 0 0 15 -16 0 0 16 -31 0 0 15 -15 0 0 15 -31 0 0 16 -15 0 0 15 -31 0 0 16 -31 0 0 15 -31 0 0 15 -46 0 0 16 -31 0 0 15 -31 0 0 16 -77 0 0 15 -30 0 0 16 -77 0 0 15 -93 0 0 15 -370 0 0 -15 -215 0 0 -15 -93 0 0 -16 -46 0 0 -15 -62 0 0 -16 -77 0 0 -15 -46 0 0 -16 -31 0 0 -15 -46 0 0 -15 -62 0 0 -16 -30 0 0 -15 -47 0 0 -16 -31 0 0 -15 -30 0 0 -15 -31 0 0 -16 -31 0 0 -15 -31 0 0 -16 -31 0 0 -15 -30 0 0 -15 -31 0 0 -16 -16 0 0 -15 -30 0 0 -16 -16 0 0 -15 -31 0 0 -15 -15 0 0 -16 -31 0 0 -15 -15 0 0 -16 -16 0 0 -15 -31 0 0 -16 -15 0 0 -15 -15 0 0 -15 -16 0 0 -16 -15 0 0 -15 -16 0 0 -16 -15 0 0 -15 -15 0 0 -15 -16 0 0 -16 -15 0 0 -15 -16 0 0 -16 -15 0 0 -15 -15 0 0 -31 -16 0 0 -31 -15 0 0 -108 15 0 0 -30 16 0 0 -31 15 0 0 -31 15 0 0 -15 16 0 0 -16 15 0 0 -15 31 0 0 -16 31 0 0 -15 46 0 0 -15 77 0 0 15 46 0 0 15 16 0 0 16 31 0 0 15 15 0 0 16 15 0 0 15 16 0 0 15 15 0 0 16 16 0 0 15 15 0 0 16 15 0 0 15 16 0 0 15 15 0 0 16 31 0 0 15 15 0 0 16 31 0 0 15 16 0 0 16 30 0 0 15 16 0 0 15 31 0 0 16 31 0 0 15 30 0 0 16 31 0 0 15 31 0 0 15 31 0 0 16 61 0 0 15 31 0 0 16 31 0 0 15 46 0 0 15 77 0 0 16 62 0 0 15 77 0 0 16 108 0 0 15 139 0 0 15 184 0 0 -15 155 0 0 -15 30 0 0 -16 62 0 0 -15 31 0 0 -16 46 0 0 -15 31 0 0 -15 31 0 0 -16 30 0 0 -15 16 0 0 -16 31 0 0 -15 15 0 0 -15 16 0 0 -16 30 0 0 -15 16 0 0 -16 15 0 0 -15 16 0 0 -15 15 0 0 -16 15 0 0 -15 16 0 0 -16 15 0 0 -31 16 0 0 -15 15 0 0 -31 15 0 0 -15 16 0 0 -31 15 0 0 -31 16 0 0 -31 15 0 0 -61 15 0 0 -77 16 0 0 -154 -16 0 0 -77 -15 0 0 -62 -15 0 0 -31 -16 0 0 -31 -15 0 0 -46 -16 0 0 -15 -15 0 0 -31 -15 0 0 -31 -16 0 0 -15 -15 0 0 -31 -16 0 0 -16 -15 0 0 -15 -15 0 0 -15 -16 0 0 -31 -15 0 0 -16 -16 0 0 -15 -15 0 0 -15 -15 0 0 -16 -16 0 0 -15 -15 0 0 -16 -16 0 0 -15 -31 0 0 -15 -15 0 0 -16 -15 0 0 -15 -31 0 0 -16 -16 0 0 -15 -15 0 0 -15 -31 0 0 -16 -31 0 0 -15 -15 0 0 -16 -31 0 0 -15 -31 0 0 -16 -30 0 0 -15 -31 0 0 -15 -31 0 0 -16 -62 0 0 -15 -15 0 0 -16 -46 0 0 -15 -31 0 0 -15 -62 0 0 -16 -46 0 0 -15 -31 0 0 -16 -77 0 0 -15 -46 0 0 -15 -31 0 0 -16 -62 0 0 -15 -46 0 0 -16 -46 0 0 -15 -77 0 0 -15 -31 0 0 -16 -46 0 0 -15 -31 0 0 -16 -62 0 0 -15 -30 0 0 -16 -47 0 0 -15 -30 0 0 -15 -31 0 0 -16 -31 0 0 -15 -46 0 0 -16 -16 0 0 -15 -31 0 0 -15 -30 0 0 -16 -31 0 0 -15 -16 0 0 -16 -30 0 0 -15 -16 0 0 -15 -31 0 0 -16 -15 0 0 -15 -15 0 0 -16 -16 0 0 -15 -31 0 0 -15 -15 0 0 -16 -15 0 0 -15 -16 0 0 -16 -15 0 0 -15 -16 0 0 -15 -15 0 0 -31 -15 0 0 -16 -16 0 0 -15 -15 0 0 -16 -16 0 0 -30 -15 0 0 -16 -16 0 0 -31 -15 0 0 -30 -15 0 0 -31 -16 0 0 -31 -15 0 0 -31 -16 0 0 -61 -15 0 0 -31 -15 0 0 -62 -16 0 0 -385 16 0 0 -46 15 0 0 -62 15 0 0 -62 16 0 0 -30 15 0 0 -31 16 0 0 -46 15 0 0 -31 15 0 0 -31 16 0 0 -16 15 0 0 -30 16 0 0 -31 15 0 0 -16 16 0 0 -30 15 0 0 -16 15 0 0 -15 16 0 0 -31 15 0 0 -15 16 0 0 -16 15 0 0 -15 15 0 0 -16 16 0 0 -15 15 0 0 -15 16 0 0 -16 15 0 0 -15 15 0 0 -16 16 0 0 -15 15 0 0 -16 31 0 0 -15 15 0 0 -15 16 0 0 -16 31 0 0 -15 15 0 0 -16 31 0 0 -15 31 0 0 -15 15 0 0 -16 31 0 0 -15 31 0 0 -16 46 0 0 -15 31 0 0 -15 31 0 0 -16 61 0 0 -15 31 0 0 -16 46 0 0 -15 62 0 0 -15 92 0 0 -16 108 0 0 -15 416 0 0 15 108 0 0 16 46 0 0 15 93 0 0 15 46 0 0 16 31 0 0 15 61 0 0 16 31 0 0 15 31 0 0 15 31 0 0 16 31 0 0 15 15 0 0 16 31 0 0 15 31 0 0 15 15 0 0 16 31 0 0 15 15 0 0 16 31 0 0 15 16 0 0 15 15 0 0 16 15 0 0 15 16 0 0 16 15 0 0 15 16 0 0 16 15 0 0 15 15 0 0 15 16 0 0 16 15 0 0 31 16 0 0 30 15 0 0 139 -15 0 0 31 -16 0 0 31 -15 0 0 15 -16 0 0 16 -15 0 0 15 -15 0 0 15 -16 0 0 16 -31 0 0 15 -30 0 0 16 -93 0 0 -16 -46 0 0 -15 -31 0 0 -16 -15 0 0 -15 -16 0 0 -15 -15 0 0 -16 -15 0 0 -15 -16 0 0 -16 -15 0 0 -15 -16 0 0 -16 -15 0 0 -15 -31 0 0 -15 -15 0 0 -16 -31 0 0 -15 -16 0 0 -16 -30 0 0 -15 -31 0 0 -15 -31 0 0 -16 -62 0 0 -15 -46 0 0 -16 -46 0 0 -15 -77 0 0 -15 -401 0 0 15zm2512 -3267l-108 0 0 16 -154 0 0 15 -93 0 0 16 -123 0 0 15 -154 0 0 15 -92 0 0 16 -124 0 0 15 -108 0 0 16 -154 0 0 15 -107 0 0 15 -93 0 0 16 -169 0 0 15 -93 0 0 16 -108 0 0 15 -138 0 0 16 -124 0 0 15 -108 0 0 15 -107 0 0 16 -154 0 0 15 -124 0 0 16 -77 0 0 15 -169 0 0 15 -93 0 0 16 -123 0 0 15 -123 0 0 16 -124 0 0 15 -123 0 0 15 -77 0 0 16 -169 0 0 15 -124 0 0 16 -92 0 0 15 -154 0 0 15 -108 0 0 16 -108 0 0 15 -123 0 0 16 -123 0 0 15 -124 0 0 16 -92 0 0 15 -154 0 0 15 -139 0 0 16 -77 0 0 15 -154 0 0 16 -123 0 0 15 -93 0 0 15 -123 0 0 16 -139 0 0 15 -123 0 0 16 -77 0 0 15 -169 0 0 15 -124 0 0 16 -77 0 0 15 -138 0 0 16 -154 0 0 15 -93 0 0 15 -123 0 0 16 -93 0 0 15 -46 0 0 16 -31 0 0 15 -46 0 0 16 -15 0 0 15 -31 0 0 15 -16 0 0 16 -30 0 0 15 -16 0 0 16 -15 0 0 15 -16 0 0 31 -15 0 0 15 -15 0 0 31 -16 0 0 31 -15 0 0 31 -16 0 0 61 -15 0 0 6487 15 0 0 93 16 0 0 46 15 0 0 77 16 0 0 31 15 0 0 31 15 0 0 46 16 0 0 31 15 0 0 15 16 0 0 31 15 0 0 15 15 0 0 31 16 0 0 15 15 0 0 16 16 0 0 15 15 0 0 31 15 0 0 15 16 0 0 16 15 0 0 15 16 0 0 16 31 0 0 15 15 0 0 15 15 0 0 16 16 0 0 15 31 0 0 16 15 0 0 15 31 0 0 16 31 0 0 15 30 0 0 15 31 0 0 16 31 0 0 15 46 0 0 16 47 0 0 15 61 0 0 15 7889 0 0 -15 62 0 0 -15 46 0 0 -16 46 0 0 -15 31 0 0 -16 31 0 0 -15 31 0 0 -15 31 0 0 -16 30 0 0 -15 16 0 0 -16 31 0 0 -15 15 0 0 -16 15 0 0 -15 16 0 0 -15 15 0 0 -16 16 0 0 -15 15 0 0 -16 15 0 0 -15 16 0 0 -15 15 0 0 -16 16 0 0 -15 15 0 0 -16 16 0 0 -15 15 0 0 -31 15 0 0 -15 16 0 0 -31 15 0 0 -31 16 0 0 -15 15 0 0 -31 15 0 0 -46 16 0 0 -31 15 0 0 -46 16 0 0 -77 15 0 0 -93 15 0 0 -5300 -15 0 0 -77 -15 0 0 -93 -16 0 0 -46 -15 0 0 -31 -16 0 0 -46 -15 0 0 -15 -15 0 0 -31 -16 0 0 -31 -15 0 0 -31 -16 0 0 -15 -15 0 0 -31 -15 0 0 -16 -16 0 0 -15 -15 0 0 -15 -16 0 0 -16 -15 0 0 -15 -16 0 0 -16 -15 0 0 -15 -15 0 0 -15 -16 0 0 -16 -15 0 0 -15 -16 0 0 -16 -15 0 0 -15 -31 0 0 -15 -15 0 0 -16 -31 0 0 -15 -15 0 0 -16 -31 0 0 -15 -31 0 0 -15 -31 0 0 -16 -31 0 0 -15 -61 0 0 -16 -47 0 0 -15 -61 0 0 -16 -7535 0 0 -15 -123 0 0 -15 -46 0 0 -16 -31 0 0 -15 -31 0 0 -16 -15 0 0 -15 -16 0 0 -15 -15 0 0 -16 -16 0 0 -15 -15 0 0 -31 -15 0 0 -46 -16 0 0 -31 -15 0 0 -123 -16 0 0 -93 6919 0 0 -801 -16 0 0 -62 -15 0 0 -46 -16 0 0 -15 -15 0 0 -31 -15 0 0 -16 -16 0 0 -30 -15 0 0 -16 -16 0 0 -15 -15 0 0 -16 -31 0 0 -15 -15 0 0 -15 -31 0 0 -16 -15 0 0 -15 -47 0 0 -16 -46 0 0 -15 -200 0 0 15z"/>
   <path class="fil0" d="M13606 5532l-16 0 0 46 -15 0 0 46 -16 0 0 31 -15 0 0 31 -16 0 0 30 -15 0 0 31 -15 0 0 31 -16 0 0 16 -15 0 0 30 -16 0 0 16 -15 0 0 15 -15 0 0 31 -16 0 0 15 -15 0 0 16 -16 0 0 15 -15 0 0 16 -15 0 0 15 -16 0 0 15 -15 0 0 16 -31 0 0 15 -15 0 0 16 -16 0 0 15 -31 0 0 15 -15 0 0 16 -31 0 0 15 -15 0 0 16 -31 0 0 15 -16 0 0 16 -46 0 0 15 -31 0 0 15 -15 0 0 16 -62 0 0 15 -46 0 0 16 -31 0 0 15 -61 0 0 15 -108 0 0 16 -1233 0 0 -1865 1187 0 0 16 92 0 0 15 62 0 0 16 77 0 0 15 46 0 0 15 31 0 0 16 46 0 0 15 31 0 0 16 31 0 0 15 30 0 0 15 31 0 0 16 31 0 0 15 15 0 0 16 31 0 0 15 16 0 0 16 15 0 0 15 31 0 0 15 15 0 0 16 16 0 0 15 15 0 0 16 16 0 0 15 15 0 0 15 15 0 0 16 16 0 0 15 15 0 0 16 16 0 0 15 15 0 0 31 15 0 0 15 16 0 0 31 15 0 0 15 16 0 0 31 15 0 0 16 15 0 0 30 16 0 0 31 15 0 0 47 16 0 0 46 15 0 0 46 16 0 0 108 15 0 0 169 -15 0 0 124zm-2928 2973l801 0 0 -1433 1171 0 0 -15 185 0 0 -15 108 0 0 -16 77 0 0 -15 62 0 0 -16 61 0 0 -15 62 0 0 -15 31 0 0 -16 61 0 0 -15 31 0 0 -16 46 0 0 -15 31 0 0 -15 46 0 0 -16 31 0 0 -15 31 0 0 -16 31 0 0 -15 31 0 0 -16 31 0 0 -15 30 0 0 -15 31 0 0 -16 16 0 0 -15 30 0 0 -16 16 0 0 -15 31 0 0 -15 15 0 0 -16 31 0 0 -15 15 0 0 -16 31 0 0 -15 15 0 0 -15 16 0 0 -16 31 0 0 -15 15 0 0 -16 15 0 0 -15 16 0 0 -15 15 0 0 -16 16 0 0 -15 31 0 0 -31 30 0 0 -16 16 0 0 -15 15 0 0 -15 16 0 0 -16 15 0 0 -31 15 0 0 -15 16 0 0 -15 15 0 0 -16 16 0 0 -15 15 0 0 -31 15 0 0 -15 16 0 0 -16 15 0 0 -15 16 0 0 -31 15 0 0 -15 15 0 0 -31 16 0 0 -16 15 0 0 -30 16 0 0 -31 15 0 0 -31 16 0 0 -16 15 0 0 -46 15 0 0 -15 16 0 0 -31 15 0 0 -46 16 0 0 -31 15 0 0 -46 15 0 0 -46 16 0 0 -62 15 0 0 -46 16 0 0 -62 15 0 0 -139 15 0 0 -308 -15 0 0 -138 -15 0 0 -62 -16 0 0 -62 -15 0 0 -46 -16 0 0 -46 -15 0 0 -46 -15 0 0 -31 -16 0 0 -46 -15 0 0 -31 -16 0 0 -31 -15 0 0 -31 -15 0 0 -31 -16 0 0 -15 -15 0 0 -31 -16 0 0 -31 -15 0 0 -15 -16 0 0 -31 -15 0 0 -15 -15 0 0 -31 -16 0 0 -16 -15 0 0 -30 -16 0 0 -16 -15 0 0 -15 -15 0 0 -16 -16 0 0 -15 -15 0 0 -31 -16 0 0 -15 -15 0 0 -16 -15 0 0 -15 -16 0 0 -16 -15 0 0 -15 -16 0 0 -15 -15 0 0 -16 -15 0 0 -15 -16 0 0 -16 -15 0 0 -15 -16 0 0 -15 -31 0 0 -16 -15 0 0 -15 -15 0 0 -16 -16 0 0 -15 -31 0 0 -15 -15 0 0 -16 -15 0 0 -15 -31 0 0 -16 -16 0 0 -15 -30 0 0 -15 -16 0 0 -16 -31 0 0 -15 -15 0 0 -16 -31 0 0 -15 -31 0 0 -16 -15 0 0 -15 -31 0 0 -15 -31 0 0 -16 -31 0 0 -15 -30 0 0 -16 -47 0 0 -15 -30 0 0 -15 -31 0 0 -16 -46 0 0 -15 -31 0 0 -16 -46 0 0 -15 -47 0 0 -15 -61 0 0 -16 -62 0 0 -15 -46 0 0 -16 -77 0 0 -15 -124 0 0 -15 -92 0 0 -16 -2080 0 0 4915z"/>
   <path class="fil0" d="M15331 6672l16 0 0 -139 15 0 0 -62 15 0 0 -61 16 0 0 -31 15 0 0 -46 16 0 0 -31 15 0 0 -31 16 0 0 -31 15 0 0 -30 15 0 0 -16 16 0 0 -31 15 0 0 -15 16 0 0 -31 15 0 0 -15 15 0 0 -16 16 0 0 -31 15 0 0 -15 16 0 0 -15 15 0 0 -16 15 0 0 -15 16 0 0 -16 15 0 0 -15 16 0 0 -15 30 0 0 -16 16 0 0 -15 15 0 0 -16 31 0 0 -15 15 0 0 -15 31 0 0 -16 31 0 0 -15 16 0 0 -16 30 0 0 -15 47 0 0 -15 30 0 0 -16 47 0 0 -15 30 0 0 -16 77 0 0 -15 78 0 0 -16 292 0 0 16 62 0 0 15 77 0 0 16 46 0 0 15 31 0 0 16 46 0 0 15 31 0 0 15 31 0 0 16 31 0 0 15 30 0 0 16 16 0 0 15 31 0 0 15 15 0 0 16 31 0 0 15 15 0 0 16 16 0 0 15 15 0 0 15 16 0 0 16 15 0 0 15 15 0 0 16 16 0 0 15 15 0 0 15 16 0 0 16 15 0 0 15 15 0 0 16 16 0 0 31 15 0 0 15 16 0 0 31 15 0 0 15 15 0 0 31 16 0 0 15 15 0 0 47 16 0 0 15 15 0 0 46 16 0 0 31 15 0 0 62 15 0 0 46 16 0 0 62 15 0 0 369 -15 0 0 62 -16 0 0 46 -15 0 0 46 -15 0 0 47 -16 0 0 46 -15 0 0 15 -16 0 0 47 -15 0 0 15 -16 0 0 31 -15 0 0 31 -15 0 0 15 -16 0 0 15 -15 0 0 31 -16 0 0 16 -15 0 0 15 -15 0 0 15 -16 0 0 16 -15 0 0 15 -16 0 0 16 -15 0 0 15 -15 0 0 15 -16 0 0 16 -15 0 0 15 -16 0 0 16 -15 0 0 15 -31 0 0 15 -15 0 0 16 -31 0 0 15 -16 0 0 16 -30 0 0 15 -31 0 0 16 -31 0 0 15 -31 0 0 15 -31 0 0 16 -46 0 0 15 -61 0 0 16 -47 0 0 15 -92 0 0 15 -277 0 0 -15 -93 0 0 -15 -31 0 0 -16 -61 0 0 -15 -47 0 0 -16 -30 0 0 -15 -31 0 0 -15 -31 0 0 -16 -31 0 0 -15 -31 0 0 -16 -31 0 0 -15 -15 0 0 -16 -15 0 0 -15 -31 0 0 -15 -16 0 0 -16 -15 0 0 -15 -15 0 0 -16 -16 0 0 -15 -31 0 0 -15 -15 0 0 -31 -31 0 0 -31 -15 0 0 -15 -16 0 0 -16 -15 0 0 -15 -15 0 0 -31 -16 0 0 -15 -15 0 0 -31 -16 0 0 -16 -15 0 0 -30 -15 0 0 -31 -16 0 0 -31 -15 0 0 -31 -16 0 0 -46 -15 0 0 -31 -16 0 0 -62 -15 0 0 -77 -15 0 0 -123 -16 0 0 -123zm925 -1711l-124 0 0 16 -123 0 0 15 -77 0 0 16 -46 0 0 15 -46 0 0 16 -62 0 0 15 -31 0 0 15 -46 0 0 16 -46 0 0 15 -31 0 0 16 -31 0 0 15 -31 0 0 15 -30 0 0 16 -31 0 0 15 -31 0 0 16 -31 0 0 15 -15 0 0 15 -31 0 0 16 -16 0 0 15 -30 0 0 16 -16 0 0 15 -15 0 0 15 -31 0 0 16 -15 0 0 15 -16 0 0 16 -31 0 0 15 -15 0 0 16 -15 0 0 15 -16 0 0 15 -15 0 0 16 -16 0 0 15 -30 0 0 16 -16 0 0 15 -15 0 0 15 -16 0 0 16 -15 0 0 31 -16 0 0 15 -15 0 0 15 -15 0 0 16 -16 0 0 15 -15 0 0 16 -16 0 0 30 -15 0 0 16 -15 0 0 15 -16 0 0 31 -15 0 0 15 -16 0 0 31 -15 0 0 16 -15 0 0 31 -16 0 0 15 -15 0 0 31 -16 0 0 31 -15 0 0 15 -15 0 0 31 -16 0 0 31 -15 0 0 46 -16 0 0 31 -15 0 0 30 -16 0 0 47 -15 0 0 31 -15 0 0 46 -16 0 0 61 -15 0 0 47 -16 0 0 61 -15 0 0 77 -15 0 0 124 -16 0 0 369 16 0 0 124 15 0 0 77 15 0 0 61 16 0 0 47 15 0 0 61 16 0 0 46 15 0 0 31 15 0 0 46 16 0 0 31 15 0 0 31 16 0 0 46 15 0 0 31 16 0 0 31 15 0 0 15 15 0 0 31 16 0 0 31 15 0 0 15 16 0 0 31 15 0 0 16 15 0 0 30 16 0 0 16 15 0 0 31 16 0 0 15 15 0 0 15 15 0 0 16 16 0 0 31 15 0 0 15 16 0 0 15 15 0 0 16 15 0 0 15 16 0 0 16 15 0 0 15 16 0 0 16 15 0 0 15 16 0 0 15 15 0 0 16 15 0 0 15 16 0 0 16 15 0 0 15 16 0 0 15 15 0 0 16 31 0 0 15 15 0 0 16 16 0 0 15 15 0 0 15 31 0 0 16 15 0 0 15 31 0 0 16 15 0 0 15 31 0 0 15 16 0 0 16 31 0 0 15 15 0 0 16 31 0 0 15 31 0 0 15 30 0 0 16 31 0 0 15 31 0 0 16 46 0 0 15 31 0 0 16 46 0 0 15 46 0 0 15 47 0 0 16 46 0 0 15 77 0 0 16 62 0 0 15 77 0 0 15 493 0 0 -15 92 0 0 -15 62 0 0 -16 77 0 0 -15 46 0 0 -16 46 0 0 -15 47 0 0 -15 46 0 0 -16 31 0 0 -15 30 0 0 -16 47 0 0 -15 30 0 0 -16 16 0 0 -15 31 0 0 -15 30 0 0 -16 31 0 0 -15 31 0 0 -16 16 0 0 -15 30 0 0 -15 16 0 0 -16 31 0 0 -15 15 0 0 -16 15 0 0 -15 31 0 0 -15 16 0 0 -16 15 0 0 -15 15 0 0 370 16 0 0 15 693 0 0 -3513 -693 0 0 15 -16 0 0 370 -15 0 0 -15 -15 0 0 -16 -16 0 0 -15 -15 0 0 -16 -31 0 0 -15 -15 0 0 -15 -31 0 0 -16 -16 0 0 -15 -30 0 0 -16 -16 0 0 -15 -31 0 0 -15 -15 0 0 -16 -46 0 0 -15 -16 0 0 -16 -31 0 0 -15 -46 0 0 -15 -15 0 0 -16 -46 0 0 -15 -31 0 0 -16 -46 0 0 -15 -31 0 0 -15 -62 0 0 -16 -62 0 0 -15 -30 0 0 -16 -93 0 0 -15 -123 0 0 -16 -123 0 0 -15 -185 0 0 15z"/>
   <polygon class="fil0" points="18490,4992 18505,4992 18505,5023 18521,5023 18521,5054 18536,5054 18536,5069 18552,5069 18552,5100 18567,5100 18567,5131 18582,5131 18582,5162 18598,5162 18598,5193 18613,5193 18613,5223 18629,5223 18629,5254 18644,5254 18644,5285 18659,5285 18659,5316 18675,5316 18675,5331 18690,5331 18690,5362 18706,5362 18706,5393 18721,5393 18721,5424 18736,5424 18736,5455 18752,5455 18752,5485 18767,5485 18767,5516 18783,5516 18783,5547 18798,5547 18798,5578 18814,5578 18814,5593 18829,5593 18829,5624 18844,5624 18844,5655 18860,5655 18860,5686 18875,5686 18875,5716 18891,5716 18891,5747 18906,5747 18906,5778 18921,5778 18921,5809 18937,5809 18937,5840 18952,5840 18952,5855 18968,5855 18968,5886 18983,5886 18983,5917 18998,5917 18998,5948 19014,5948 19014,5978 19029,5978 19029,6009 19045,6009 19045,6040 19060,6040 19060,6055 19075,6055 19075,6102 19091,6102 19091,6133 19106,6133 19106,6148 19122,6148 19122,6179 19137,6179 19137,6210 19153,6210 19153,6240 19168,6240 19168,6271 19183,6271 19183,6302 19199,6302 19199,6333 19214,6333 19214,6348 19230,6348 19230,6379 19245,6379 19245,6410 19260,6410 19260,6441 19276,6441 19276,6471 19291,6471 19291,6502 19307,6502 19307,6533 19322,6533 19322,6564 19337,6564 19337,6595 19353,6595 19353,6626 19368,6626 19368,6641 19384,6641 19384,6687 19399,6687 19399,6703 19414,6703 19414,6733 19430,6733 19430,6764 19445,6764 19445,6795 19461,6795 19461,6826 19476,6826 19476,6841 19491,6841 19491,6888 19507,6888 19507,6918 19522,6918 19522,6934 19538,6934 19538,6965 19553,6965 19553,6995 19569,6995 19569,7026 19584,7026 19584,7057 19599,7057 19599,7088 19615,7088 19615,7119 19630,7119 19630,7134 19646,7134 19646,7165 19661,7165 19661,7211 19676,7211 19676,7227 19692,7227 19692,7257 19707,7257 19707,7288 19723,7288 19723,7319 19738,7319 19738,7350 19753,7350 19753,7381 19769,7381 19769,7411 19784,7411 19784,7427 19800,7427 19800,7473 19815,7473 19815,7488 19830,7488 19830,7519 19846,7519 19846,7550 19861,7550 19861,7581 19877,7581 19877,7612 19892,7612 19892,7643 19908,7643 19908,7673 19923,7673 19923,7704 19938,7704 19938,7720 19954,7720 19954,7750 19969,7750 19969,7781 19985,7781 19985,7812 20000,7812 20000,7843 20015,7843 20015,7874 20031,7874 20031,7904 20046,7904 20046,7935 20062,7935 20062,7951 20077,7951 20077,7997 20092,7997 20092,8012 20108,8012 20108,8043 20123,8043 20123,8074 20139,8074 20139,8105 20123,8105 20123,8136 20108,8136 20108,8166 20092,8166 20092,8197 20077,8197 20077,8228 20062,8228 20062,8259 20046,8259 20046,8274 20031,8274 20031,8305 20015,8305 20015,8336 20000,8336 20000,8367 19985,8367 19985,8398 19969,8398 19969,8428 19954,8428 19954,8459 19938,8459 19938,8475 19923,8475 19923,8521 19908,8521 19908,8552 19892,8552 19892,8567 19877,8567 19877,8598 19861,8598 19861,8629 19846,8629 19846,8659 19830,8659 19830,8690 19815,8690 19815,8721 19800,8721 19800,8752 19784,8752 19784,8767 19769,8767 19769,8814 19753,8814 19753,8829 19738,8829 19738,8860 19723,8860 19723,8891 19707,8891 19707,8921 19692,8921 19692,8952 19676,8952 19676,8983 19661,8983 19661,9014 19646,9014 19646,9045 19630,9045 19630,9060 19615,9060 19615,9091 19599,9091 19599,9122 19584,9122 19584,9153 19569,9153 19569,9183 19553,9183 19553,9214 19538,9214 19538,9245 19522,9245 19522,9260 19507,9260 19507,9307 19491,9307 19491,9337 19476,9337 19476,9353 19461,9353 19461,9384 19445,9384 19445,9414 19430,9414 19430,9445 19414,9445 19414,9476 19399,9476 19399,9507 19384,9507 19384,9538 19368,9538 19368,9553 19353,9553 19353,9599 19337,9599 19337,9630 19322,9630 19322,9646 19307,9646 19307,9676 19291,9676 19291,9707 19276,9707 19276,9738 19260,9738 19260,9769 19245,9769 19245,9800 19230,9800 19230,9831 19214,9831 19214,9846 19199,9846 19199,9877 19183,9877 19183,9923 19168,9923 19168,9938 19153,9938 19153,9969 19137,9969 19137,10000 20092,10000 20092,9985 20108,9985 20108,9938 20123,9938 20123,9923 20139,9923 20139,9892 20154,9892 20154,9861 20169,9861 20169,9831 20185,9831 20185,9800 20200,9800 20200,9769 20216,9769 20216,9738 20231,9738 20231,9707 20246,9707 20246,9692 20262,9692 20262,9661 20277,9661 20277,9630 20293,9630 20293,9599 20308,9599 20308,9569 20324,9569 20324,9538 20339,9538 20339,9507 20354,9507 20354,9492 20370,9492 20370,9445 20385,9445 20385,9430 20401,9430 20401,9399 20416,9399 20416,9353 20431,9353 20431,9337 20447,9337 20447,9307 20462,9307 20462,9276 20478,9276 20478,9245 20493,9245 20493,9214 20508,9214 20508,9199 20524,9199 20524,9168 20539,9168 20539,9122 20555,9122 20555,9106 20570,9106 20570,9076 20585,9076 20585,9045 20601,9045 20601,9014 20616,9014 20616,8983 20632,8983 20632,8952 20647,8952 20647,8921 20663,8921 20663,8906 20678,8906 20678,8875 20693,8875 20693,8844 20709,8844 20709,8814 20724,8814 20724,8783 20740,8783 20740,8752 20755,8752 20755,8721 20770,8721 20770,8690 20786,8690 20786,8659 20801,8659 20801,8629 20817,8629 20817,8613 20832,8613 20832,8582 20847,8582 20847,8552 20863,8552 20863,8521 20878,8521 20878,8490 20894,8490 20894,8459 20909,8459 20909,8428 20924,8428 20924,8413 20940,8413 20940,8382 20955,8382 20955,8336 20971,8336 20971,8320 20986,8320 20986,8290 21001,8290 21001,8259 21017,8259 21017,8228 21032,8228 21032,8197 21048,8197 21048,8166 21063,8166 21063,8136 21079,8136 21079,8120 21094,8120 21094,8089 21109,8089 21109,8059 21125,8059 21125,8028 21140,8028 21140,7997 21156,7997 21156,7966 21171,7966 21171,7935 21186,7935 21186,7904 21202,7904 21202,7874 21217,7874 21217,7858 21233,7858 21233,7827 21248,7827 21248,7797 21263,7797 21263,7766 21279,7766 21279,7735 21294,7735 21294,7704 21310,7704 21310,7673 21325,7673 21325,7643 21340,7643 21340,7627 21356,7627 21356,7581 21371,7581 21371,7565 21387,7565 21387,7535 21402,7535 21402,7504 21418,7504 21418,7473 21433,7473 21433,7442 21448,7442 21448,7411 21464,7411 21464,7381 21479,7381 21479,7350 21495,7350 21495,7334 21510,7334 21510,7288 21525,7288 21525,7273 21541,7273 21541,7242 21556,7242 21556,7211 21572,7211 21572,7180 21587,7180 21587,7149 21602,7149 21602,7119 21618,7119 21618,7088 21633,7088 21633,7072 21649,7072 21649,7042 21664,7042 21664,7011 21679,7011 21679,6980 21695,6980 21695,6949 21710,6949 21710,6918 21726,6918 21726,6888 21741,6888 21741,6857 21757,6857 21757,6841 21772,6841 21772,6795 21787,6795 21787,6764 21803,6764 21803,6749 21818,6749 21818,6718 21834,6718 21834,6687 21849,6687 21849,6656 21864,6656 21864,6641 21880,6641 21880,6595 21895,6595 21895,6564 21911,6564 21911,6549 21926,6549 21926,6518 21941,6518 21941,6487 21957,6487 21957,6456 21972,6456 21972,6425 21988,6425 21988,6394 22003,6394 22003,6364 22018,6364 22018,6333 22034,6333 22034,6317 22049,6317 22049,6271 22065,6271 22065,6256 22080,6256 22080,6225 22095,6225 22095,6194 22111,6194 22111,6163 22126,6163 22126,6133 22142,6133 22142,6102 22157,6102 22157,6071 22173,6071 22173,6055 22188,6055 22188,6025 22203,6025 22203,5978 22219,5978 22219,5963 22234,5963 22234,5932 22250,5932 22250,5901 22265,5901 22265,5871 22280,5871 22280,5840 22296,5840 22296,5809 22311,5809 22311,5778 22327,5778 22327,5763 22342,5763 22342,5732 22357,5732 22357,5686 22373,5686 22373,5670 22388,5670 22388,5639 22404,5639 22404,5609 22419,5609 22419,5578 22434,5578 22434,5547 22450,5547 22450,5516 22465,5516 22465,5485 22481,5485 22481,5470 22496,5470 22496,5439 22512,5439 22512,5408 22527,5408 22527,5378 22542,5378 22542,5347 22558,5347 22558,5316 22573,5316 22573,5285 22589,5285 22589,5254 22604,5254 22604,5239 22619,5239 22619,5208 22635,5208 22635,5177 22650,5177 22650,5146 22666,5146 22666,5116 22681,5116 22681,5085 22696,5085 22696,5054 22712,5054 22712,5023 22727,5023 22727,4992 22743,4992 22743,4946 21803,4946 21803,4961 21787,4961 21787,4992 21772,4992 21772,5023 21757,5023 21757,5054 21741,5054 21741,5085 21726,5085 21726,5116 21710,5116 21710,5131 21695,5131 21695,5177 21679,5177 21679,5193 21664,5193 21664,5223 21649,5223 21649,5254 21633,5254 21633,5285 21618,5285 21618,5316 21602,5316 21602,5331 21587,5331 21587,5378 21572,5378 21572,5393 21556,5393 21556,5424 21541,5424 21541,5455 21525,5455 21525,5485 21510,5485 21510,5516 21495,5516 21495,5547 21479,5547 21479,5578 21464,5578 21464,5609 21448,5609 21448,5624 21433,5624 21433,5655 21418,5655 21418,5686 21402,5686 21402,5716 21387,5716 21387,5747 21371,5747 21371,5778 21356,5778 21356,5809 21340,5809 21340,5840 21325,5840 21325,5871 21310,5871 21310,5901 21294,5901 21294,5917 21279,5917 21279,5963 21263,5963 21263,5978 21248,5978 21248,6009 21233,6009 21233,6040 21217,6040 21217,6071 21202,6071 21202,6102 21186,6102 21186,6117 21171,6117 21171,6163 21156,6163 21156,6194 21140,6194 21140,6210 21125,6210 21125,6240 21109,6240 21109,6271 21094,6271 21094,6302 21079,6302 21079,6333 21063,6333 21063,6364 21048,6364 21048,6394 21032,6394 21032,6410 21017,6410 21017,6441 21001,6441 21001,6487 20986,6487 20986,6502 20971,6502 20971,6533 20955,6533 20955,6564 20940,6564 20940,6595 20924,6595 20924,6626 20909,6626 20909,6656 20894,6656 20894,6687 20878,6687 20878,6703 20863,6703 20863,6733 20847,6733 20847,6764 20832,6764 20832,6795 20817,6795 20817,6826 20801,6826 20801,6857 20786,6857 20786,6888 20770,6888 20770,6903 20755,6903 20755,6949 20740,6949 20740,6980 20724,6980 20724,6995 20709,6995 20709,7026 20693,7026 20693,7072 20678,7072 20678,7088 20663,7088 20663,7103 20647,7103 20647,7072 20632,7072 20632,7042 20616,7042 20616,7011 20601,7011 20601,6995 20585,6995 20585,6949 20570,6949 20570,6918 20555,6918 20555,6903 20539,6903 20539,6872 20524,6872 20524,6841 20508,6841 20508,6810 20493,6810 20493,6780 20478,6780 20478,6749 20462,6749 20462,6718 20447,6718 20447,6687 20431,6687 20431,6672 20416,6672 20416,6641 20401,6641 20401,6610 20385,6610 20385,6579 20370,6579 20370,6549 20354,6549 20354,6518 20339,6518 20339,6487 20324,6487 20324,6456 20308,6456 20308,6425 20293,6425 20293,6410 20277,6410 20277,6379 20262,6379 20262,6333 20246,6333 20246,6317 20231,6317 20231,6287 20216,6287 20216,6256 20200,6256 20200,6225 20185,6225 20185,6194 20169,6194 20169,6179 20154,6179 20154,6133 20139,6133 20139,6117 20123,6117 20123,6086 20108,6086 20108,6055 20092,6055 20092,6025 20077,6025 20077,5994 20062,5994 20062,5963 20046,5963 20046,5932 20031,5932 20031,5901 20015,5901 20015,5886 20000,5886 20000,5855 19985,5855 19985,5824 19969,5824 19969,5794 19954,5794 19954,5763 19938,5763 19938,5732 19923,5732 19923,5701 19908,5701 19908,5670 19892,5670 19892,5639 19877,5639 19877,5624 19861,5624 19861,5593 19846,5593 19846,5562 19830,5562 19830,5532 19815,5532 19815,5501 19800,5501 19800,5470 19784,5470 19784,5439 19769,5439 19769,5408 19753,5408 19753,5393 19738,5393 19738,5347 19723,5347 19723,5331 19707,5331 19707,5300 19692,5300 19692,5270 19676,5270 19676,5239 19661,5239 19661,5208 19646,5208 19646,5177 19630,5177 19630,5146 19615,5146 19615,5131 19599,5131 19599,5085 19584,5085 19584,5069 19569,5069 19569,5039 19553,5039 19553,5008 19538,5008 19538,4977 19522,4977 19522,4961 19507,4961 19507,4946 18490,4946 "/>
   <polygon class="fil1" points="4576,2835 4468,2835 4468,2851 4376,2851 4376,2866 4314,2866 4314,2881 4268,2881 4268,2897 4237,2897 4237,2912 4176,2912 4176,2928 4145,2928 4145,2943 4114,2943 4114,2958 4068,2958 4068,2974 4037,2974 4037,2989 4006,2989 4006,3005 3991,3005 3991,3020 3960,3020 3960,3035 3929,3035 3929,3051 3914,3051 3914,3066 3883,3066 3883,3082 3867,3082 3867,3097 3852,3097 3852,3112 3821,3112 3821,3128 3806,3128 3806,3143 3790,3143 3790,3159 3775,3159 3775,3174 3760,3174 3760,3190 3744,3190 3744,3205 3729,3205 3729,3220 3713,3220 3713,3236 3698,3236 3698,3251 3683,3251 3683,3267 3667,3267 3667,3282 3652,3282 3652,3313 3636,3313 3636,3328 3621,3328 3621,3344 3606,3344 3606,3374 3590,3374 3590,3390 3575,3390 3575,3421 3559,3421 3559,3451 3544,3451 3544,3467 3528,3467 3528,3498 3513,3498 3513,3529 3498,3529 3498,3575 3482,3575 3482,3606 3467,3606 3467,3636 3451,3636 3451,3698 3436,3698 3436,3760 3421,3760 3421,3806 3405,3806 3405,4191 3421,4191 3421,4253 3436,4253 3436,4284 3451,4284 3451,4345 3467,4345 3467,4376 3482,4376 3482,4407 3498,4407 3498,4438 3513,4438 3513,4468 3528,4468 3528,4499 3544,4499 3544,4515 3559,4515 3559,4545 3575,4545 3575,4561 3590,4561 3590,4576 3606,4576 3606,4592 3621,4592 3621,4623 3636,4623 3636,4638 3652,4638 3652,4653 3667,4653 3667,4669 3683,4669 3683,4684 3698,4684 3698,4700 3713,4700 3713,4715 3744,4715 3744,4730 3760,4730 3760,4746 3775,4746 3775,4761 3790,4761 3790,4777 3821,4777 3821,4792 3837,4792 3837,4807 3867,4807 3867,4823 3883,4823 3883,4838 3914,4838 3914,4854 3944,4854 3944,4869 3975,4869 3975,4884 3991,4884 3991,4900 4037,4900 4037,4915 4068,4915 4068,4931 4099,4931 4099,4946 4129,4946 4129,4961 4176,4961 4176,4977 4206,4977 4206,4992 4268,4992 4268,5008 4299,5008 4299,5023 4345,5023 4345,5039 4376,5039 4376,5054 4453,5054 4453,5069 4499,5069 4499,5085 4545,5085 4545,5100 4607,5100 4607,5116 4638,5116 4638,5131 4684,5131 4684,5146 4761,5146 4761,5162 4792,5162 4792,5177 4838,5177 4838,5193 4900,5193 4900,5208 4931,5208 4931,5223 4977,5223 4977,5239 4992,5239 4992,5254 5054,5254 5054,5270 5085,5270 5085,5285 5116,5285 5116,5300 5146,5300 5146,5316 5177,5316 5177,5331 5208,5331 5208,5347 5223,5347 5223,5362 5254,5362 5254,5378 5285,5378 5285,5393 5300,5393 5300,5408 5316,5408 5316,5424 5347,5424 5347,5439 5362,5439 5362,5455 5377,5455 5377,5470 5408,5470 5408,5485 5424,5485 5424,5501 5439,5501 5439,5516 5455,5516 5455,5532 5470,5532 5470,5547 5485,5547 5485,5562 5501,5562 5501,5578 5516,5578 5516,5609 5532,5609 5532,5624 5547,5624 5547,5639 5562,5639 5562,5655 5578,5655 5578,5686 5593,5686 5593,5701 5609,5701 5609,5732 5624,5732 5624,5763 5639,5763 5639,5778 5655,5778 5655,5824 5670,5824 5670,5855 5686,5855 5686,5886 5701,5886 5701,5948 5716,5948 5716,6025 5732,6025 5732,6179 5716,6179 5716,6256 5701,6256 5701,6317 5686,6317 5686,6348 5670,6348 5670,6379 5655,6379 5655,6410 5639,6410 5639,6425 5624,6425 5624,6456 5609,6456 5609,6471 5593,6471 5593,6502 5578,6502 5578,6518 5562,6518 5562,6533 5547,6533 5547,6549 5532,6549 5532,6564 5516,6564 5516,6579 5501,6579 5501,6595 5485,6595 5485,6610 5455,6610 5455,6626 5439,6626 5439,6641 5424,6641 5424,6656 5393,6656 5393,6672 5377,6672 5377,6687 5347,6687 5347,6703 5316,6703 5316,6718 5285,6718 5285,6733 5239,6733 5239,6749 5208,6749 5208,6764 5146,6764 5146,6780 5116,6780 5116,6795 4961,6795 4961,6810 4777,6810 4777,6795 4638,6795 4638,6780 4530,6780 4530,6764 4453,6764 4453,6749 4391,6749 4391,6733 4314,6733 4314,6718 4268,6718 4268,6703 4237,6703 4237,6687 4206,6687 4206,6672 4145,6672 4145,6656 4114,6656 4114,6641 4083,6641 4083,6626 4052,6626 4052,6610 4022,6610 4022,6595 3991,6595 3991,6579 3960,6579 3960,6564 3944,6564 3944,6549 3914,6549 3914,6533 3898,6533 3898,6518 3867,6518 3867,6502 3852,6502 3852,6487 3821,6487 3821,6471 3806,6471 3806,6456 3790,6456 3790,6441 3775,6441 3775,6425 3760,6425 3760,6410 3744,6410 3744,6394 3729,6394 3729,6379 3713,6379 3713,6364 3698,6364 3698,6348 3683,6348 3683,6333 3652,6333 3652,6317 3636,6317 3636,6302 3590,6302 3590,6287 3513,6287 3513,6302 3467,6302 3467,6317 3436,6317 3436,6333 3405,6333 3405,6348 3390,6348 3390,6364 3374,6364 3374,6379 3359,6379 3359,6410 3344,6410 3344,6441 3328,6441 3328,6471 3313,6471 3313,6579 3328,6579 3328,6610 3344,6610 3344,6641 3359,6641 3359,6656 3374,6656 3374,6672 3390,6672 3390,6687 3405,6687 3405,6703 3421,6703 3421,6718 3436,6718 3436,6733 3451,6733 3451,6749 3467,6749 3467,6764 3482,6764 3482,6780 3498,6780 3498,6795 3513,6795 3513,6810 3528,6810 3528,6826 3559,6826 3559,6841 3575,6841 3575,6857 3590,6857 3590,6872 3621,6872 3621,6888 3636,6888 3636,6903 3667,6903 3667,6918 3683,6918 3683,6934 3713,6934 3713,6949 3729,6949 3729,6965 3760,6965 3760,6980 3790,6980 3790,6995 3821,6995 3821,7011 3852,7011 3852,7026 3883,7026 3883,7042 3914,7042 3914,7057 3944,7057 3944,7072 3975,7072 3975,7088 4022,7088 4022,7103 4052,7103 4052,7119 4114,7119 4114,7134 4160,7134 4160,7149 4191,7149 4191,7165 4237,7165 4237,7180 4314,7180 4314,7196 4376,7196 4376,7211 4422,7211 4422,7227 4515,7227 4515,7242 4730,7242 4730,7257 5100,7257 5100,7242 5193,7242 5193,7227 5270,7227 5270,7211 5300,7211 5300,7196 5377,7196 5377,7180 5408,7180 5408,7165 5439,7165 5439,7149 5485,7149 5485,7134 5516,7134 5516,7119 5547,7119 5547,7103 5578,7103 5578,7088 5593,7088 5593,7072 5624,7072 5624,7057 5639,7057 5639,7042 5670,7042 5670,7026 5686,7026 5686,7011 5716,7011 5716,6995 5732,6995 5732,6980 5747,6980 5747,6965 5778,6965 5778,6949 5793,6949 5793,6934 5809,6934 5809,6918 5824,6918 5824,6903 5840,6903 5840,6888 5855,6888 5855,6872 5871,6872 5871,6857 5886,6857 5886,6841 5901,6841 5901,6810 5917,6810 5917,6795 5932,6795 5932,6780 5948,6780 5948,6764 5963,6764 5963,6733 5978,6733 5978,6718 5994,6718 5994,6687 6009,6687 6009,6672 6025,6672 6025,6641 6040,6641 6040,6610 6055,6610 6055,6579 6071,6579 6071,6564 6086,6564 6086,6518 6102,6518 6102,6471 6117,6471 6117,6441 6132,6441 6132,6394 6148,6394 6148,6333 6163,6333 6163,6225 6179,6225 6179,5978 6163,5978 6163,5917 6148,5917 6148,5824 6132,5824 6132,5778 6117,5778 6117,5747 6102,5747 6102,5686 6086,5686 6086,5655 6071,5655 6071,5624 6055,5624 6055,5593 6040,5593 6040,5562 6025,5562 6025,5532 6009,5532 6009,5501 5994,5501 5994,5485 5978,5485 5978,5455 5963,5455 5963,5439 5948,5439 5948,5408 5932,5408 5932,5393 5917,5393 5917,5378 5901,5378 5901,5362 5886,5362 5886,5331 5871,5331 5871,5316 5855,5316 5855,5300 5840,5300 5840,5285 5824,5285 5824,5270 5809,5270 5809,5254 5793,5254 5793,5239 5778,5239 5778,5223 5763,5223 5763,5208 5747,5208 5747,5193 5732,5193 5732,5177 5701,5177 5701,5162 5686,5162 5686,5146 5670,5146 5670,5131 5655,5131 5655,5116 5624,5116 5624,5100 5609,5100 5609,5085 5593,5085 5593,5069 5562,5069 5562,5054 5547,5054 5547,5039 5532,5039 5532,5023 5501,5023 5501,5008 5470,5008 5470,4992 5455,4992 5455,4977 5424,4977 5424,4961 5393,4961 5393,4946 5377,4946 5377,4931 5347,4931 5347,4915 5316,4915 5316,4900 5285,4900 5285,4884 5254,4884 5254,4869 5223,4869 5223,4854 5193,4854 5193,4838 5162,4838 5162,4823 5116,4823 5116,4807 5069,4807 5069,4792 5038,4792 5038,4777 5008,4777 5008,4761 4977,4761 4977,4746 4915,4746 4915,4730 4884,4730 4884,4715 4838,4715 4838,4700 4777,4700 4777,4684 4746,4684 4746,4669 4700,4669 4700,4653 4669,4653 4669,4638 4592,4638 4592,4623 4561,4623 4561,4607 4515,4607 4515,4592 4468,4592 4468,4576 4438,4576 4438,4561 4391,4561 4391,4545 4345,4545 4345,4530 4330,4530 4330,4515 4299,4515 4299,4499 4268,4499 4268,4484 4237,4484 4237,4468 4206,4468 4206,4453 4176,4453 4176,4438 4160,4438 4160,4422 4129,4422 4129,4407 4114,4407 4114,4391 4083,4391 4083,4376 4068,4376 4068,4361 4052,4361 4052,4345 4022,4345 4022,4330 4006,4330 4006,4314 3991,4314 3991,4299 3975,4299 3975,4284 3960,4284 3960,4268 3944,4268 3944,4237 3929,4237 3929,4222 3914,4222 3914,4206 3898,4206 3898,4176 3883,4176 3883,4145 3867,4145 3867,4099 3852,4099 3852,4052 3837,4052 3837,3883 3852,3883 3852,3806 3867,3806 3867,3775 3883,3775 3883,3744 3898,3744 3898,3713 3914,3713 3914,3683 3929,3683 3929,3667 3944,3667 3944,3636 3960,3636 3960,3621 3975,3621 3975,3590 3991,3590 3991,3575 4006,3575 4006,3559 4022,3559 4022,3544 4037,3544 4037,3529 4052,3529 4052,3513 4068,3513 4068,3498 4083,3498 4083,3482 4099,3482 4099,3467 4129,3467 4129,3451 4145,3451 4145,3436 4176,3436 4176,3421 4191,3421 4191,3405 4222,3405 4222,3390 4253,3390 4253,3374 4283,3374 4283,3359 4314,3359 4314,3344 4345,3344 4345,3328 4407,3328 4407,3313 4438,3313 4438,3297 4499,3297 4499,3282 4576,3282 4576,3267 4977,3267 4977,3282 5054,3282 5054,3297 5100,3297 5100,3313 5146,3313 5146,3328 5208,3328 5208,3344 5239,3344 5239,3359 5270,3359 5270,3374 5300,3374 5300,3390 5316,3390 5316,3405 5347,3405 5347,3421 5362,3421 5362,3436 5393,3436 5393,3451 5408,3451 5408,3467 5424,3467 5424,3482 5439,3482 5439,3498 5455,3498 5455,3513 5470,3513 5470,3529 5485,3529 5485,3544 5501,3544 5501,3559 5516,3559 5516,3575 5547,3575 5547,3590 5593,3590 5593,3606 5686,3606 5686,3590 5716,3590 5716,3575 5747,3575 5747,3559 5763,3559 5763,3544 5778,3544 5778,3529 5793,3529 5793,3513 5809,3513 5809,3498 5824,3498 5824,3467 5840,3467 5840,3436 5855,3436 5855,3297 5840,3297 5840,3267 5824,3267 5824,3236 5809,3236 5809,3220 5793,3220 5793,3205 5778,3205 5778,3190 5763,3190 5763,3174 5747,3174 5747,3159 5732,3159 5732,3143 5716,3143 5716,3128 5701,3128 5701,3112 5686,3112 5686,3097 5670,3097 5670,3082 5639,3082 5639,3066 5624,3066 5624,3051 5593,3051 5593,3035 5578,3035 5578,3020 5547,3020 5547,3005 5516,3005 5516,2989 5501,2989 5501,2974 5470,2974 5470,2958 5439,2958 5439,2943 5408,2943 5408,2928 5377,2928 5377,2912 5316,2912 5316,2897 5285,2897 5285,2881 5239,2881 5239,2866 5146,2866 5146,2851 5100,2851 5100,2835 4992,2835 4992,2820 4576,2820 "/>
   <path class="fil0" d="M17288 2049l16 0 0 -61 15 0 0 -31 15 0 0 -46 16 0 0 -31 15 0 0 -16 16 0 0 -30 15 0 0 -16 15 0 0 -15 16 0 0 -16 15 0 0 -15 16 0 0 -15 15 0 0 -16 15 0 0 -15 16 0 0 -16 15 0 0 -15 31 0 0 -15 31 0 0 -16 31 0 0 -15 30 0 0 -16 47 0 0 -15 92 0 0 -16 123 0 0 16 93 0 0 15 46 0 0 16 31 0 0 15 31 0 0 16 31 0 0 15 30 0 0 15 16 0 0 16 15 0 0 15 31 0 0 16 15 0 0 15 16 0 0 15 15 0 0 16 16 0 0 31 15 0 0 15 15 0 0 31 16 0 0 31 15 0 0 30 16 0 0 47 15 0 0 46 15 0 0 216 -15 0 0 61 -15 0 0 31 -16 0 0 46 -15 0 0 31 -16 0 0 16 -15 0 0 30 -15 0 0 16 -16 0 0 15 -15 0 0 16 -16 0 0 15 -15 0 0 15 -15 0 0 16 -16 0 0 15 -15 0 0 16 -31 0 0 15 -15 0 0 15 -47 0 0 16 -30 0 0 15 -47 0 0 16 -46 0 0 15 -231 0 0 -15 -62 0 0 -16 -46 0 0 -15 -31 0 0 -16 -31 0 0 -15 -30 0 0 -15 -16 0 0 -16 -31 0 0 -15 -15 0 0 -16 -15 0 0 -15 -16 0 0 -15 -15 0 0 -16 -16 0 0 -15 -15 0 0 -31 -15 0 0 -15 -16 0 0 -31 -15 0 0 -31 -16 0 0 -31 -15 0 0 -46 -15 0 0 -46 -16 0 0 -201zm-323 -801l-16 0 0 15 -31 0 0 16 -15 0 0 31 -16 0 0 2542 16 0 0 31 15 0 0 15 16 0 0 16 31 0 0 15 154 0 0 -15 15 0 0 -16 15 0 0 -15 16 0 0 -16 15 0 0 -46 16 0 0 -1078 15 0 0 15 15 0 0 16 16 0 0 15 15 0 0 15 31 0 0 16 16 0 0 15 15 0 0 16 31 0 0 15 15 0 0 15 31 0 0 16 31 0 0 15 15 0 0 16 46 0 0 15 31 0 0 15 46 0 0 16 62 0 0 15 77 0 0 16 277 0 0 -16 93 0 0 -15 46 0 0 -16 46 0 0 -15 31 0 0 -15 46 0 0 -16 31 0 0 -15 16 0 0 -16 30 0 0 -15 31 0 0 -15 16 0 0 -16 30 0 0 -15 16 0 0 -16 15 0 0 -15 16 0 0 -15 15 0 0 -16 16 0 0 -15 15 0 0 -16 15 0 0 -15 16 0 0 -16 15 0 0 -15 16 0 0 -31 15 0 0 -15 15 0 0 -16 16 0 0 -30 15 0 0 -16 16 0 0 -31 15 0 0 -30 15 0 0 -31 16 0 0 -46 15 0 0 -47 16 0 0 -61 15 0 0 -77 15 0 0 -201 -15 0 0 -77 -15 0 0 -77 -16 0 0 -46 -15 0 0 -31 -16 0 0 -31 -15 0 0 -30 -15 0 0 -31 -16 0 0 -31 -15 0 0 -15 -16 0 0 -31 -15 0 0 -16 -15 0 0 -15 -16 0 0 -16 -15 0 0 -30 -16 0 0 -16 -15 0 0 -15 -15 0 0 -16 -16 0 0 -15 -15 0 0 -15 -31 0 0 -16 -16 0 0 -15 -15 0 0 -16 -31 0 0 -15 -15 0 0 -15 -31 0 0 -16 -15 0 0 -15 -47 0 0 -16 -15 0 0 -15 -46 0 0 -15 -31 0 0 -16 -62 0 0 -15 -61 0 0 -16 -62 0 0 -15 -246 0 0 15 -62 0 0 16 -62 0 0 15 -46 0 0 16 -46 0 0 15 -31 0 0 15 -31 0 0 16 -46 0 0 15 -15 0 0 16 -16 0 0 15 -31 0 0 15 -15 0 0 16 -31 0 0 15 -15 0 0 16 -16 0 0 15 -15 0 0 15 -31 0 0 16 -15 0 0 -200 -16 0 0 -47 -15 0 0 -15 -16 0 0 -16 -15 0 0 -15 -31 0 0 -15 -138 0 0 15z"/>
   <polygon class="fil0" points="11495,154 11402,154 11402,169 11356,169 11356,185 11279,185 11279,200 11248,200 11248,216 11217,216 11217,231 11171,231 11171,247 11140,247 11140,262 11109,262 11109,277 11094,277 11094,293 11063,293 11063,308 11048,308 11048,324 11017,324 11017,339 11002,339 11002,354 10986,354 10986,370 10971,370 10971,385 10955,385 10955,401 10940,401 10940,416 10924,416 10924,431 10909,431 10909,447 10894,447 10894,462 10878,462 10878,493 10863,493 10863,508 10847,508 10847,539 10832,539 10832,555 10817,555 10817,586 10801,586 10801,616 10786,616 10786,663 10770,663 10770,693 10755,693 10755,755 10740,755 10740,1063 10755,1063 10755,1109 10770,1109 10770,1140 10786,1140 10786,1171 10801,1171 10801,1202 10817,1202 10817,1233 10832,1233 10832,1248 10847,1248 10847,1263 10863,1263 10863,1294 10878,1294 10878,1310 10894,1310 10894,1325 10909,1325 10909,1341 10924,1341 10924,1356 10940,1356 10940,1371 10971,1371 10971,1387 10986,1387 10986,1402 11002,1402 11002,1418 11032,1418 11032,1433 11048,1433 11048,1448 11079,1448 11079,1464 11109,1464 11109,1479 11140,1479 11140,1495 11171,1495 11171,1510 11202,1510 11202,1525 11263,1525 11263,1541 11294,1541 11294,1556 11340,1556 11340,1572 11402,1572 11402,1587 11448,1587 11448,1602 11495,1602 11495,1618 11541,1618 11541,1633 11602,1633 11602,1649 11649,1649 11649,1664 11695,1664 11695,1680 11757,1680 11757,1695 11787,1695 11787,1710 11818,1710 11818,1726 11864,1726 11864,1741 11895,1741 11895,1757 11926,1757 11926,1772 11957,1772 11957,1787 11988,1787 11988,1803 12003,1803 12003,1818 12034,1818 12034,1834 12049,1834 12049,1849 12065,1849 12065,1864 12080,1864 12080,1880 12095,1880 12095,1895 12111,1895 12111,1911 12126,1911 12126,1926 12142,1926 12142,1941 12157,1941 12157,1957 12173,1957 12173,1972 12188,1972 12188,2003 12203,2003 12203,2018 12219,2018 12219,2049 12234,2049 12234,2065 12250,2065 12250,2111 12265,2111 12265,2157 12280,2157 12280,2342 12265,2342 12265,2388 12250,2388 12250,2435 12234,2435 12234,2450 12219,2450 12219,2481 12203,2481 12203,2496 12188,2496 12188,2512 12173,2512 12173,2527 12157,2527 12157,2542 12142,2542 12142,2558 12126,2558 12126,2573 12111,2573 12111,2589 12080,2589 12080,2604 12065,2604 12065,2619 12034,2619 12034,2635 12003,2635 12003,2650 11972,2650 11972,2666 11926,2666 11926,2681 11864,2681 11864,2696 11556,2696 11556,2681 11464,2681 11464,2666 11402,2666 11402,2650 11356,2650 11356,2635 11294,2635 11294,2619 11248,2619 11248,2604 11217,2604 11217,2589 11186,2589 11186,2573 11140,2573 11140,2558 11125,2558 11125,2542 11094,2542 11094,2527 11063,2527 11063,2512 11048,2512 11048,2496 11032,2496 11032,2481 11002,2481 11002,2465 10986,2465 10986,2450 10971,2450 10971,2435 10955,2435 10955,2419 10940,2419 10940,2404 10924,2404 10924,2388 10894,2388 10894,2373 10770,2373 10770,2388 10755,2388 10755,2404 10740,2404 10740,2419 10709,2419 10709,2450 10693,2450 10693,2481 10678,2481 10678,2573 10693,2573 10693,2604 10709,2604 10709,2619 10724,2619 10724,2635 10740,2635 10740,2650 10755,2650 10755,2666 10770,2666 10770,2681 10786,2681 10786,2696 10801,2696 10801,2712 10832,2712 10832,2727 10847,2727 10847,2743 10863,2743 10863,2758 10894,2758 10894,2774 10909,2774 10909,2789 10940,2789 10940,2804 10971,2804 10971,2820 10986,2820 10986,2835 11017,2835 11017,2851 11048,2851 11048,2866 11094,2866 11094,2881 11125,2881 11125,2897 11156,2897 11156,2912 11202,2912 11202,2928 11263,2928 11263,2943 11310,2943 11310,2958 11371,2958 11371,2974 11464,2974 11464,2989 11587,2989 11587,3005 11834,3005 11834,2989 11957,2989 11957,2974 12018,2974 12018,2958 12065,2958 12065,2943 12095,2943 12095,2928 12142,2928 12142,2912 12173,2912 12173,2897 12203,2897 12203,2881 12234,2881 12234,2866 12250,2866 12250,2851 12280,2851 12280,2835 12296,2835 12296,2820 12311,2820 12311,2804 12342,2804 12342,2789 12357,2789 12357,2774 12373,2774 12373,2758 12388,2758 12388,2743 12404,2743 12404,2727 12419,2727 12419,2712 12434,2712 12434,2681 12450,2681 12450,2666 12465,2666 12465,2650 12481,2650 12481,2619 12496,2619 12496,2604 12512,2604 12512,2573 12527,2573 12527,2542 12542,2542 12542,2512 12558,2512 12558,2450 12573,2450 12573,2419 12589,2419 12589,2327 12604,2327 12604,2203 12589,2203 12589,2096 12573,2096 12573,2065 12558,2065 12558,2003 12542,2003 12542,1972 12527,1972 12527,1941 12512,1941 12512,1911 12496,1911 12496,1880 12481,1880 12481,1864 12465,1864 12465,1834 12450,1834 12450,1818 12434,1818 12434,1787 12419,1787 12419,1772 12404,1772 12404,1757 12388,1757 12388,1741 12373,1741 12373,1726 12357,1726 12357,1710 12342,1710 12342,1695 12327,1695 12327,1680 12311,1680 12311,1664 12296,1664 12296,1649 12265,1649 12265,1633 12250,1633 12250,1618 12234,1618 12234,1602 12203,1602 12203,1587 12188,1587 12188,1572 12157,1572 12157,1556 12142,1556 12142,1541 12111,1541 12111,1525 12080,1525 12080,1510 12065,1510 12065,1495 12034,1495 12034,1479 12003,1479 12003,1464 11972,1464 11972,1448 11941,1448 11941,1433 11895,1433 11895,1418 11864,1418 11864,1402 11834,1402 11834,1387 11772,1387 11772,1371 11741,1371 11741,1356 11695,1356 11695,1341 11649,1341 11649,1325 11587,1325 11587,1310 11541,1310 11541,1294 11495,1294 11495,1279 11448,1279 11448,1263 11402,1263 11402,1248 11371,1248 11371,1233 11340,1233 11340,1217 11310,1217 11310,1202 11279,1202 11279,1186 11248,1186 11248,1171 11233,1171 11233,1156 11202,1156 11202,1140 11186,1140 11186,1125 11156,1125 11156,1109 11140,1109 11140,1094 11125,1094 11125,1079 11109,1079 11109,1063 11094,1063 11094,1032 11079,1032 11079,1017 11063,1017 11063,986 11048,986 11048,955 11032,955 11032,817 11048,817 11048,770 11063,770 11063,740 11079,740 11079,709 11094,709 11094,693 11109,693 11109,663 11125,663 11125,647 11140,647 11140,632 11156,632 11156,616 11171,616 11171,601 11186,601 11186,586 11202,586 11202,570 11217,570 11217,555 11248,555 11248,539 11279,539 11279,524 11310,524 11310,508 11340,508 11340,493 11371,493 11371,478 11433,478 11433,462 11464,462 11464,447 11572,447 11572,431 11757,431 11757,447 11849,447 11849,462 11880,462 11880,478 11941,478 11941,493 11972,493 11972,508 12003,508 12003,524 12034,524 12034,539 12049,539 12049,555 12080,555 12080,570 12095,570 12095,586 12111,586 12111,601 12126,601 12126,616 12142,616 12142,632 12157,632 12157,647 12203,647 12203,663 12250,663 12250,647 12296,647 12296,632 12311,632 12311,616 12327,616 12327,601 12342,601 12342,586 12357,586 12357,570 12373,570 12373,539 12388,539 12388,462 12373,462 12373,431 12357,431 12357,401 12342,401 12342,385 12327,385 12327,370 12311,370 12311,354 12296,354 12296,339 12280,339 12280,324 12250,324 12250,308 12234,308 12234,293 12203,293 12203,277 12188,277 12188,262 12157,262 12157,247 12126,247 12126,231 12095,231 12095,216 12065,216 12065,200 12018,200 12018,185 11957,185 11957,169 11911,169 11911,154 11834,154 11834,139 11495,139 "/>
   <polygon class="fil0" points="12912,154 12881,154 12881,169 12866,169 12866,185 12850,185 12850,200 12835,200 12835,231 12820,231 12820,2912 12835,2912 12835,2943 12850,2943 12850,2958 12866,2958 12866,2974 12897,2974 12897,2989 12928,2989 12928,3005 13020,3005 13020,2989 13051,2989 13051,2974 13082,2974 13082,2958 13097,2958 13097,2943 13112,2943 13112,2897 13128,2897 13128,1818 13143,1818 13143,1803 13159,1803 13159,1787 13174,1787 13174,1772 13189,1772 13189,1757 13205,1757 13205,1741 13220,1741 13220,1726 13236,1726 13236,1710 13251,1710 13251,1695 13282,1695 13282,1680 13297,1680 13297,1664 13328,1664 13328,1649 13359,1649 13359,1633 13390,1633 13390,1618 13421,1618 13421,1602 13467,1602 13467,1587 13498,1587 13498,1572 13590,1572 13590,1556 13837,1556 13837,1572 13914,1572 13914,1587 13944,1587 13944,1602 13975,1602 13975,1618 13991,1618 13991,1633 14006,1633 14006,1649 14022,1649 14022,1664 14037,1664 14037,1680 14052,1680 14052,1695 14068,1695 14068,1726 14083,1726 14083,1757 14099,1757 14099,1787 14114,1787 14114,2866 14129,2866 14129,2928 14145,2928 14145,2943 14160,2943 14160,2958 14176,2958 14176,2974 14191,2974 14191,2989 14237,2989 14237,3005 14314,3005 14314,2989 14361,2989 14361,2974 14376,2974 14376,2958 14391,2958 14391,2943 14407,2943 14407,2928 14422,2928 14422,1695 14407,1695 14407,1649 14391,1649 14391,1618 14376,1618 14376,1587 14361,1587 14361,1556 14345,1556 14345,1525 14330,1525 14330,1510 14314,1510 14314,1479 14299,1479 14299,1464 14283,1464 14283,1448 14268,1448 14268,1433 14253,1433 14253,1418 14237,1418 14237,1402 14222,1402 14222,1387 14191,1387 14191,1371 14160,1371 14160,1356 14145,1356 14145,1341 14114,1341 14114,1325 14083,1325 14083,1310 14037,1310 14037,1294 14006,1294 14006,1279 13929,1279 13929,1263 13821,1263 13821,1248 13636,1248 13636,1263 13513,1263 13513,1279 13436,1279 13436,1294 13390,1294 13390,1310 13344,1310 13344,1325 13313,1325 13313,1341 13267,1341 13267,1356 13236,1356 13236,1371 13205,1371 13205,1387 13174,1387 13174,1402 13159,1402 13159,1418 13128,1418 13128,231 13112,231 13112,200 13097,200 13097,185 13082,185 13082,169 13066,169 13066,154 13035,154 13035,139 12912,139 "/>
   <path class="fil0" d="M21387 1941l15 0 0 -46 16 0 0 -31 15 0 0 -15 15 0 0 -31 16 0 0 -15 15 0 0 -16 16 0 0 -30 15 0 0 -16 31 0 0 -15 15 0 0 -16 16 0 0 -15 30 0 0 -15 16 0 0 -16 31 0 0 -15 30 0 0 -16 47 0 0 -15 46 0 0 -16 62 0 0 -15 107 0 0 -15 31 0 0 15 93 0 0 15 61 0 0 16 31 0 0 15 31 0 0 16 31 0 0 15 15 0 0 16 31 0 0 15 15 0 0 15 16 0 0 16 15 0 0 15 16 0 0 31 15 0 0 15 15 0 0 31 16 0 0 31 15 0 0 31 16 0 0 46 15 0 0 46 -1032 0 0 -31zm431 -647l-77 0 0 16 -62 0 0 15 -46 0 0 16 -46 0 0 15 -31 0 0 15 -31 0 0 16 -30 0 0 15 -31 0 0 16 -31 0 0 15 -15 0 0 15 -31 0 0 16 -16 0 0 15 -15 0 0 16 -16 0 0 15 -30 0 0 15 -16 0 0 16 -15 0 0 15 -16 0 0 16 -15 0 0 15 -15 0 0 31 -16 0 0 15 -15 0 0 16 -16 0 0 31 -15 0 0 15 -15 0 0 31 -16 0 0 31 -15 0 0 30 -16 0 0 47 -15 0 0 46 -15 0 0 61 -16 0 0 93 -15 0 0 246 15 0 0 93 16 0 0 46 15 0 0 46 15 0 0 47 16 0 0 30 15 0 0 31 16 0 0 31 15 0 0 31 15 0 0 15 16 0 0 31 15 0 0 15 16 0 0 16 15 0 0 15 15 0 0 31 16 0 0 16 15 0 0 15 16 0 0 15 30 0 0 16 16 0 0 15 15 0 0 16 16 0 0 15 31 0 0 15 30 0 0 16 16 0 0 15 31 0 0 16 46 0 0 15 31 0 0 15 46 0 0 16 61 0 0 15 108 0 0 16 293 0 0 -16 108 0 0 -15 62 0 0 -16 61 0 0 -15 46 0 0 -15 62 0 0 -16 46 0 0 -15 31 0 0 -16 31 0 0 -15 31 0 0 -15 31 0 0 -16 30 0 0 -15 31 0 0 -16 16 0 0 -15 15 0 0 -31 15 0 0 -46 16 0 0 -16 -16 0 0 -61 -15 0 0 -16 -15 0 0 -30 -16 0 0 -16 -31 0 0 -15 -30 0 0 -16 -93 0 0 16 -31 0 0 15 -31 0 0 16 -30 0 0 15 -31 0 0 15 -46 0 0 16 -47 0 0 15 -30 0 0 16 -62 0 0 15 -77 0 0 15 -324 0 0 -15 -61 0 0 -15 -47 0 0 -16 -46 0 0 -15 -31 0 0 -16 -15 0 0 -15 -31 0 0 -15 -15 0 0 -16 -16 0 0 -15 -15 0 0 -16 -15 0 0 -15 -16 0 0 -15 -15 0 0 -31 -16 0 0 -16 -15 0 0 -30 -15 0 0 -31 -16 0 0 -47 -15 0 0 -46 -16 0 0 -31 1264 0 0 -15 46 0 0 -15 15 0 0 -16 16 0 0 -15 15 0 0 -16 16 0 0 -46 15 0 0 -108 -15 0 0 -108 -16 0 0 -46 -15 0 0 -77 -16 0 0 -46 -15 0 0 -31 -15 0 0 -31 -16 0 0 -30 -15 0 0 -31 -16 0 0 -16 -15 0 0 -31 -15 0 0 -15 -16 0 0 -15 -15 0 0 -31 -16 0 0 -16 -15 0 0 -15 -15 0 0 -15 -16 0 0 -16 -15 0 0 -15 -16 0 0 -16 -31 0 0 -15 -15 0 0 -15 -15 0 0 -16 -31 0 0 -15 -31 0 0 -16 -31 0 0 -15 -31 0 0 -15 -30 0 0 -16 -47 0 0 -15 -61 0 0 -16 -62 0 0 -15 -262 0 0 15z"/>
   <path class="fil0" d="M19414 1926l16 0 0 -31 15 0 0 -31 16 0 0 -15 15 0 0 -31 15 0 0 -31 16 0 0 -15 15 0 0 -15 16 0 0 -16 31 0 0 -15 15 0 0 -16 15 0 0 -15 31 0 0 -15 16 0 0 -16 30 0 0 -15 31 0 0 -16 46 0 0 -15 47 0 0 -16 77 0 0 -15 200 0 0 15 62 0 0 16 46 0 0 15 31 0 0 16 30 0 0 15 16 0 0 16 15 0 0 15 16 0 0 15 15 0 0 16 16 0 0 15 15 0 0 16 15 0 0 15 16 0 0 31 15 0 0 31 16 0 0 30 15 0 0 31 15 0 0 46 16 0 0 31 -1033 0 0 -46zm447 -632l-77 0 0 16 -61 0 0 15 -62 0 0 16 -46 0 0 15 -31 0 0 15 -31 0 0 16 -31 0 0 15 -31 0 0 16 -30 0 0 15 -16 0 0 15 -31 0 0 16 -15 0 0 15 -15 0 0 16 -31 0 0 15 -16 0 0 15 -15 0 0 16 -15 0 0 15 -16 0 0 16 -15 0 0 15 -16 0 0 15 -15 0 0 31 -15 0 0 16 -16 0 0 15 -15 0 0 31 -16 0 0 31 -15 0 0 31 -15 0 0 30 -16 0 0 47 -15 0 0 46 -16 0 0 46 -15 0 0 77 -16 0 0 308 16 0 0 77 15 0 0 47 16 0 0 46 15 0 0 46 16 0 0 31 15 0 0 31 15 0 0 30 16 0 0 31 15 0 0 16 16 0 0 15 15 0 0 31 15 0 0 15 16 0 0 16 15 0 0 15 16 0 0 16 15 0 0 15 15 0 0 15 16 0 0 16 31 0 0 15 15 0 0 16 15 0 0 15 16 0 0 15 31 0 0 16 30 0 0 15 31 0 0 16 31 0 0 15 46 0 0 15 47 0 0 16 46 0 0 15 92 0 0 16 339 0 0 -16 93 0 0 -15 77 0 0 -16 61 0 0 -15 31 0 0 -15 62 0 0 -16 46 0 0 -15 31 0 0 -16 31 0 0 -15 30 0 0 -15 31 0 0 -16 31 0 0 -15 31 0 0 -16 15 0 0 -30 16 0 0 -16 15 0 0 -108 -15 0 0 -31 -16 0 0 -15 -15 0 0 -15 -15 0 0 -16 -31 0 0 -15 -31 0 0 -16 -77 0 0 16 -31 0 0 15 -31 0 0 16 -31 0 0 15 -30 0 0 15 -31 0 0 16 -46 0 0 15 -47 0 0 16 -61 0 0 15 -62 0 0 15 -354 0 0 -15 -62 0 0 -15 -46 0 0 -16 -31 0 0 -15 -31 0 0 -16 -31 0 0 -15 -15 0 0 -15 -15 0 0 -16 -31 0 0 -15 -16 0 0 -31 -15 0 0 -15 -16 0 0 -16 -15 0 0 -31 -15 0 0 -15 -16 0 0 -31 -15 0 0 -46 -16 0 0 -46 -15 0 0 -47 1264 0 0 -15 46 0 0 -15 15 0 0 -16 16 0 0 -15 15 0 0 -31 15 0 0 -46 16 0 0 -31 -16 0 0 -154 -15 0 0 -62 -15 0 0 -61 -16 0 0 -47 -15 0 0 -30 -16 0 0 -31 -15 0 0 -46 -15 0 0 -16 -16 0 0 -31 -15 0 0 -15 -16 0 0 -31 -15 0 0 -15 -16 0 0 -16 -15 0 0 -31 -31 0 0 -30 -15 0 0 -16 -31 0 0 -15 -15 0 0 -16 -16 0 0 -15 -15 0 0 -15 -31 0 0 -16 -15 0 0 -15 -31 0 0 -16 -31 0 0 -15 -31 0 0 -15 -46 0 0 -16 -46 0 0 -15 -62 0 0 -16 -77 0 0 -15 -216 0 0 15z"/>
   <path class="fil0" d="M15100 2034l16 0 0 -62 15 0 0 -15 15 0 0 -46 16 0 0 -31 15 0 0 -16 16 0 0 -30 15 0 0 -16 15 0 0 -15 16 0 0 -16 15 0 0 -30 16 0 0 -16 30 0 0 -15 16 0 0 -16 15 0 0 -15 31 0 0 -15 31 0 0 -16 31 0 0 -15 31 0 0 -16 46 0 0 -15 92 0 0 -16 123 0 0 16 93 0 0 15 46 0 0 16 31 0 0 15 31 0 0 16 31 0 0 15 30 0 0 15 16 0 0 16 15 0 0 15 16 0 0 16 15 0 0 15 15 0 0 15 16 0 0 16 15 0 0 15 16 0 0 16 15 0 0 30 15 0 0 16 16 0 0 31 15 0 0 46 16 0 0 31 15 0 0 46 16 0 0 216 -16 0 0 46 -15 0 0 46 -16 0 0 46 -15 0 0 16 -16 0 0 31 -15 0 0 30 -15 0 0 16 -16 0 0 15 -15 0 0 16 -16 0 0 15 -15 0 0 15 -15 0 0 16 -16 0 0 15 -31 0 0 16 -15 0 0 15 -31 0 0 15 -31 0 0 16 -30 0 0 15 -47 0 0 16 -61 0 0 15 -231 0 0 -15 -47 0 0 -16 -46 0 0 -15 -31 0 0 -16 -31 0 0 -15 -30 0 0 -15 -31 0 0 -16 -16 0 0 -15 -15 0 0 -16 -15 0 0 -15 -16 0 0 -15 -15 0 0 -16 -16 0 0 -15 -15 0 0 -16 -15 0 0 -30 -16 0 0 -16 -15 0 0 -46 -16 0 0 -31 -15 0 0 -31 -15 0 0 -61 -16 0 0 -216zm432 -740l-62 0 0 16 -62 0 0 15 -61 0 0 16 -31 0 0 15 -31 0 0 15 -31 0 0 16 -46 0 0 15 -15 0 0 16 -31 0 0 15 -16 0 0 15 -30 0 0 16 -16 0 0 15 -15 0 0 16 -31 0 0 15 -16 0 0 15 -15 0 0 16 -15 0 0 15 -16 0 0 16 -15 0 0 30 -16 0 0 16 -15 0 0 15 -15 0 0 16 -16 0 0 31 -15 0 0 30 -16 0 0 16 -15 0 0 31 -15 0 0 30 -16 0 0 31 -15 0 0 31 -16 0 0 62 -15 0 0 46 -15 0 0 92 -16 0 0 185 16 0 0 93 15 0 0 46 15 0 0 62 16 0 0 30 15 0 0 47 16 0 0 30 15 0 0 16 15 0 0 31 16 0 0 30 15 0 0 16 16 0 0 15 15 0 0 31 15 0 0 15 16 0 0 16 15 0 0 15 16 0 0 16 15 0 0 15 15 0 0 16 16 0 0 15 15 0 0 15 16 0 0 16 31 0 0 15 15 0 0 16 15 0 0 15 31 0 0 15 31 0 0 16 15 0 0 15 31 0 0 16 46 0 0 15 31 0 0 15 46 0 0 16 47 0 0 15 92 0 0 16 277 0 0 -16 78 0 0 -15 61 0 0 -16 46 0 0 -15 31 0 0 -15 46 0 0 -16 31 0 0 -15 16 0 0 -16 30 0 0 -15 31 0 0 -15 16 0 0 -16 15 0 0 -15 31 0 0 -16 15 0 0 -15 16 0 0 -15 15 0 0 -16 16 0 0 -15 15 0 0 -16 15 0 0 -15 16 0 0 -16 15 0 0 -15 16 0 0 -31 15 0 0 -15 15 0 0 -16 16 0 0 -30 15 0 0 -31 16 0 0 -16 15 0 0 -30 15 0 0 -47 16 0 0 -30 15 0 0 -62 16 0 0 -62 15 0 0 -77 15 0 0 -185 -15 0 0 -77 -15 0 0 -61 -16 0 0 -62 -15 0 0 -31 -16 0 0 -31 -15 0 0 -30 -15 0 0 -31 -16 0 0 -16 -15 0 0 -30 -16 0 0 -31 -15 0 0 -16 -15 0 0 -15 -16 0 0 -16 -15 0 0 -15 -16 0 0 -31 -15 0 0 -15 -15 0 0 -16 -16 0 0 -15 -31 0 0 -15 -15 0 0 -16 -15 0 0 -15 -16 0 0 -16 -31 0 0 -15 -15 0 0 -15 -31 0 0 -16 -15 0 0 -15 -47 0 0 -16 -30 0 0 -15 -31 0 0 -15 -31 0 0 -16 -62 0 0 -15 -61 0 0 -16 -62 0 0 -15 -246 0 0 15z"/>
  </g>
 </g>
</svg>
