<?xml version="1.0" encoding="UTF-8"?>
<!DOCTYPE svg PUBLIC "-//W3C//DTD SVG 1.1//EN" "http://www.w3.org/Graphics/SVG/1.1/DTD/svg11.dtd">
<!-- Creator: CorelDRAW X7 -->
<svg xmlns="http://www.w3.org/2000/svg" xml:space="preserve" width="176.55mm" height="100mm" version="1.1" style="shape-rendering:geometricPrecision; text-rendering:geometricPrecision; image-rendering:optimizeQuality; fill-rule:evenodd; clip-rule:evenodd"
viewBox="0 0 17655 10000"
 xmlns:xlink="http://www.w3.org/1999/xlink">
 <defs>
  <style type="text/css">
   <![CDATA[
    .fil0 {fill:#005FAF}
    .fil1 {fill:#16A5A6}
   ]]>
  </style>
 </defs>
 <g id="Layer_x0020_1">
  <metadata id="CorelCorpID_0Corel-Layer"/>
  <g id="_508043624">
   <g>
    <path class="fil0" d="M8058 3581l-464 0c1,-36 72,-288 86,-345 15,-60 30,-110 44,-169l44 -175c157,0 494,-25 621,37 157,77 200,273 113,420 -84,143 -258,232 -444,232zm-90 -1436l32 -148c12,-50 21,-100 35,-152 13,-52 23,-104 34,-152 14,-54 20,-141 47,-141l373 0c158,0 284,43 284,200 0,80 -34,179 -68,228 -104,152 -261,165 -435,165 -101,0 -201,0 -302,0zm-1411 -457c54,0 107,0 161,0 61,0 96,6 155,6l-145 551c-16,65 -33,126 -47,185 -62,251 -130,491 -192,742l-286 1105c-31,125 -68,249 -97,374l1810 0c198,0 377,0 562,-44 195,-46 364,-112 534,-219 75,-47 197,-138 259,-199l71 -77c24,-30 48,-52 71,-83 132,-175 255,-421 255,-654 0,-236 0,-453 -131,-648 -73,-109 -224,-238 -345,-266l221 -139 202 -166c232,-234 401,-489 401,-842 0,-577 -493,-870 -1005,-870l-1797 0c-25,0 -60,102 -86,146l-163 314c-15,30 -27,48 -41,75l-285 552c-29,56 -54,104 -82,157z"/>
    <path class="fil0" d="M15388 1746c0,407 13,801 13,1204l-528 0c34,-63 219,-518 255,-601l240 -566c4,-11 2,-8 7,-18 6,-11 6,-11 13,-19zm-1488 -97l342 0c-32,61 -61,121 -93,185 -33,66 -64,121 -96,186 -51,102 -140,289 -191,377l-239 469c-233,470 -478,939 -713,1407l-189 378 1463 0 260 -629c11,-26 30,-68 36,-93l915 0 0 722 1346 0c0,-181 -19,-349 -19,-529l-13 -257c0,-53 -7,-84 -7,-129l-38 -921c0,-53 -7,-84 -7,-129l-32 -792c0,-52 -7,-77 -6,-129l-52 -1256c-1,-33 -6,-33 -6,-65l-1997 0c-19,0 -51,72 -69,106l-184 338c-68,111 -178,339 -247,455 -15,25 -27,50 -41,74l-60 114c-10,17 -13,19 -22,36 -11,21 -37,65 -41,82z"/>
    <path class="fil0" d="M12934 548c-22,-6 -35,-13 -53,-18 -214,-68 -225,-53 -443,-53 -116,-1 -404,45 -509,70 -79,20 -150,40 -228,63l-211 78c-34,14 -64,27 -98,44 -224,113 -335,171 -542,334 -15,11 -26,20 -40,31 -15,13 -28,23 -42,35l-74 68c-27,27 -50,43 -77,71 -28,27 -44,50 -71,77 -13,13 -23,22 -36,35 -63,66 -169,209 -223,285l-239 419c-8,18 -17,34 -25,52 -56,138 -110,275 -144,436 -17,79 -33,155 -44,246 -6,56 -23,222 -16,268 7,46 0,92 5,137 33,300 89,520 245,779 319,530 949,781 1551,781 426,0 373,-12 772,-91 100,-19 62,-13 151,-190l271 -579c17,-42 37,-78 56,-119 8,-19 18,-35 28,-56 10,-22 14,-36 25,-58l112 -236c11,-21 19,-37 27,-57 9,-23 21,-41 27,-63l-199 117c-188,98 -511,218 -735,218 -368,0 -751,-120 -924,-468 -142,-287 -114,-573 17,-857 16,-34 33,-62 50,-92 15,-26 38,-60 57,-85 19,-27 41,-55 64,-78 16,-16 18,-23 32,-39l116 -103c90,-67 165,-114 273,-158 395,-162 924,-125 1276,113l179 124 116 -212c14,-24 26,-49 41,-75 90,-150 195,-368 280,-506l200 -366c-24,-6 -32,-16 -55,-28l-827 -436c-18,27 -93,126 -116,142z"/>
    <path class="fil0" d="M1983 1224l0 84c0,267 171,463 315,626 43,49 67,61 116,122 195,242 265,419 318,777 29,197 24,863 24,1090l104 0 0 -792c0,-485 99,-844 430,-1174 161,-162 336,-390 336,-630 0,-225 -17,-347 -143,-534 -128,-189 -403,-323 -630,-323 -202,0 -361,26 -527,137l-80 61c-155,130 -263,344 -263,556z"/>
    <path class="fil0" d="M360 2551c0,-23 -1,-49 0,-71l13 -219c13,-264 59,-551 120,-795 34,-136 92,-346 140,-471 19,-48 152,-401 182,-437l427 -179c37,-12 72,-25 111,-37 41,-12 73,-24 117,-37 341,-98 678,-164 1042,-183l148 -6c50,0 90,-6 148,-6l576 42c251,37 529,96 763,171 78,25 157,50 235,80l442 183c42,27 174,387 191,434 54,157 106,307 148,477 160,642 195,1304 62,1964 -51,257 -111,475 -200,720 -14,37 -157,406 -181,431 -35,35 -477,192 -546,215 -41,14 -80,23 -119,36 -76,23 -164,48 -244,64 -262,54 -526,110 -799,117 -48,1 -64,7 -148,6 -53,0 -89,7 -148,7l-225 -7c-33,-1 -36,-6 -71,-6 -48,-1 -97,-10 -142,-13 -334,-22 -828,-155 -1134,-270 -76,-28 -150,-54 -223,-87l-161 -70c-99,-50 -49,-3 -154,-239 -34,-74 -56,-148 -86,-223 -48,-120 -112,-350 -145,-481 -42,-169 -74,-344 -98,-526 -20,-151 -41,-432 -41,-584zm2325 -2551l252 0c188,5 373,22 553,52 391,66 628,135 986,264 22,9 409,166 438,186 23,16 92,187 103,213 175,399 277,788 349,1217 55,324 51,563 51,877l-23 292c-31,224 -41,312 -90,535 -80,360 -180,608 -315,935 -64,155 -58,124 -148,168 -70,34 -144,63 -216,92 -150,60 -304,109 -468,157 -152,44 -355,87 -513,113 -165,27 -399,59 -565,59l-453 0c-96,-3 -195,-10 -315,-25 -286,-35 -479,-81 -751,-157 -256,-72 -434,-149 -669,-246l-106 -49c-55,-28 -45,-16 -73,-75 -123,-260 -205,-509 -287,-783 -10,-36 -24,-82 -31,-116 -110,-528 -143,-655 -143,-1248 0,-470 121,-1117 296,-1559 34,-86 94,-248 135,-329 12,-23 34,-83 48,-100 27,-32 359,-157 433,-186 72,-28 155,-56 231,-78 80,-23 158,-46 236,-66 333,-83 694,-133 1055,-143z"/>
    <path class="fil0" d="M2930 3092l0 831 91 0c0,-125 23,-244 68,-344 33,-73 86,-173 142,-231l43 -47c66,-55 69,-70 163,-121 348,-189 669,-211 830,-291 299,-149 348,-538 169,-839 -113,-190 -274,-270 -485,-301 -111,-16 -181,-10 -286,35 -242,106 -445,341 -561,574 -98,198 -174,438 -174,734z"/>
    <path class="fil0" d="M1069 2409c0,228 120,402 275,479 83,42 191,63 285,88 253,67 601,178 757,377 15,20 25,29 40,50 15,20 26,37 39,57 86,134 137,289 137,463 59,0 84,8 84,-19l-7 -806c0,-171 -22,-325 -62,-459 -53,-178 -145,-377 -258,-515 -21,-26 -35,-48 -58,-71 -51,-50 -27,-35 -100,-100 -14,-12 -18,-19 -33,-31 -217,-169 -401,-229 -677,-134 -253,88 -422,357 -422,621z"/>
    <path class="fil0" d="M3091 3891l0 32c139,0 48,-2 128,-111 75,-101 224,-173 356,-173 39,0 185,31 237,40 258,43 436,55 624,-131 146,-145 173,-343 116,-551 -10,-39 -42,-137 -89,-150 -20,88 -184,150 -270,174 -414,115 -868,192 -1047,621 -28,66 -55,159 -55,249z"/>
    <path class="fil0" d="M1507 3704c142,0 166,-8 297,-26 158,-21 197,-68 378,-11 117,37 211,114 250,232 10,29 -5,24 86,24l0 -52c0,-155 -97,-343 -172,-426 -25,-28 -44,-54 -73,-76 -125,-96 -112,-95 -281,-170 -207,-92 -599,-175 -681,-214 -54,-27 -151,-79 -165,-138 -81,22 -167,364 -71,561 67,137 230,296 432,296z"/>
    <path class="fil0" d="M1983 4458c-26,0 -30,-13 -64,-13 0,-39 12,-76 19,-110 93,0 91,28 91,65 0,26 -19,58 -46,58zm-206 212c89,2 78,60 104,-70 5,-26 17,-66 19,-91 130,11 74,70 64,193 22,12 65,25 97,26 -13,-55 -6,-80 7,-141 13,-59 -2,-48 -27,-84 60,-5 71,-72 71,-123 0,-61 -41,-83 -90,-97l-161 -32c0,32 -32,170 -41,210 -8,36 -16,68 -23,100 -6,32 -20,77 -20,109z"/>
    <path class="fil0" d="M3285 4573l71 0c34,52 54,123 -52,123 -3,-37 -14,-84 -19,-123zm-20 -173c61,0 84,-28 84,64 0,24 -33,39 -58,39 -25,0 -18,-21 -21,-44 -2,-20 -5,-31 -5,-59zm-96 -46c14,62 21,146 30,209l28 210c49,0 82,-8 128,-14 98,-13 126,-51 109,-158 -10,-60 -43,-66 -70,-79 11,-16 39,-40 39,-64 0,-184 -137,-114 -264,-104z"/>
    <path class="fil0" d="M2209 4644c0,115 85,123 174,123 92,0 102,-92 112,-165l30 -254c-103,0 -83,-33 -93,49 -5,39 -11,81 -15,114 -5,41 -9,77 -14,115 -5,40 -16,70 -59,70 -82,0 -39,-145 -24,-263 3,-30 11,-70 11,-104 -111,-10 -79,-46 -100,106 -9,67 -22,140 -22,209z"/>
    <path class="fil0" d="M1397 4496c0,74 66,110 136,110 29,0 33,-14 51,-26 -3,15 -6,19 -6,39 21,1 38,8 58,12 8,-36 18,-73 30,-111 8,-29 27,-87 28,-114 -48,-4 -75,-32 -129,-32 -5,22 -13,38 -13,64 12,6 34,12 51,13 -24,51 -15,90 -83,90 -77,0 -13,-168 -5,-197 12,-40 23,-105 69,-105 79,0 52,80 52,96 23,1 23,3 43,9 7,2 7,4 19,5 43,5 27,-100 -2,-132 -24,-26 -83,-49 -131,-49 -76,0 -103,67 -122,123 -15,46 -46,150 -46,205z"/>
    <path class="fil0" d="M4000 4277c1,1 2,2 2,4 2,11 66,118 69,151 -30,0 -34,7 -58,13 0,-59 -13,-106 -13,-168zm0 0l-8 -12 8 12zm-78 -64c0,70 13,147 13,219l13 219c28,-7 61,-15 84,-26 0,-42 -7,-63 -7,-110 32,-2 50,-19 78,-19 15,0 47,73 51,90 34,-2 53,-16 84,-19 -2,-24 -83,-160 -100,-190l-106 -190c-46,1 -70,22 -110,26z"/>
    <path class="fil0" d="M2763 4548l-52 0 7 -116c41,0 99,-9 94,55 -3,36 -12,61 -49,61zm-148 238l84 0 12 -174c33,3 100,22 150,-24 47,-43 63,-191 -38,-216 -22,-5 -61,-4 -93,-4 -37,-1 -48,-7 -89,-7 0,73 -19,234 -20,316 0,38 -6,63 -6,109z"/>
    <path class="fil0" d="M3549 4374c0,86 24,335 135,335 190,0 148,-121 148,-187 -32,1 -51,12 -84,13 19,78 13,103 -38,103 -51,0 -72,-174 -81,-236 -6,-44 11,-67 49,-67 36,0 32,65 51,65 30,0 43,-11 71,-13 -1,-31 -17,-66 -31,-85 -54,-74 -220,-37 -220,72z"/>
   </g>
   <path class="fil1" d="M16343 5510l-858 8 -636 3415 888 -5c82,-366 122,-800 203,-1178 73,-344 415,-872 694,-491 141,229 -242,1361 -218,1675l904 -24c76,-163 371,-1816 331,-2023 -62,-330 -327,-510 -708,-496 -476,18 -615,295 -796,355l196 -1236z"/>
   <path class="fil1" d="M2502 9923c417,162 1109,55 1379,-195 358,-332 1728,-3069 1766,-3280l-806 7 -795 1636 -140 -1638 -945 -6c12,433 293,1282 366,1805 128,919 336,1055 -793,1025l-32 646z"/>
   <path class="fil1" d="M13694 7771c-48,315 -63,400 -282,555 -677,482 -893,-235 -355,-382 133,-36 211,-34 329,-72 100,-32 203,-83 308,-101zm-1563 -588c789,23 727,188 975,-84 190,-209 757,-262 654,159 -113,122 -867,278 -1103,312 -477,69 -622,216 -756,628 -340,1043 1194,917 1634,486 190,251 -205,263 888,247 -61,-835 602,-2098 -140,-2425 -801,-353 -2045,-35 -2152,677z"/>
   <path class="fil1" d="M7219 7768c-36,297 -75,425 -255,558 -655,482 -884,-220 -374,-375 108,-33 214,-35 324,-71 128,-41 191,-88 305,-112zm-675 -513c213,-377 869,-472 769,13 -582,392 -1719,80 -1880,940 -102,545 85,766 608,786 460,17 805,-82 1045,-323 93,232 -88,272 304,264 173,-3 405,13 568,-13 -87,-832 597,-2078 -124,-2417 -689,-323 -2094,-66 -2146,674l856 76z"/>
   <path class="fil1" d="M1155 7190c-106,-195 68,-292 280,-292 363,0 234,79 371,268l749 -113c51,-858 -1619,-793 -2043,-326 -270,298 -352,823 33,1077 315,208 932,88 1138,400 -33,171 -173,283 -401,285 -286,2 -272,-151 -399,-279l-875 40c-74,552 373,703 817,737 543,42 984,13 1272,-276 227,-227 582,-769 206,-1098 -366,-322 -1040,-276 -1148,-423z"/>
   <path class="fil1" d="M9719 6451l-882 0 -455 2483 911 -28c70,-98 189,-917 250,-1130 164,-562 203,-591 728,-586l370 -645c-384,-369 -806,-45 -992,284l70 -378z"/>
   <polygon class="fil1" points="11759,6448 10868,6461 10401,8933 11340,8924 "/>
   <path class="fil1" d="M10948 6145c1032,13 898,68 918,-297 7,-140 48,-201 35,-338l-849 4 -104 631z"/>
  </g>
 </g>
</svg>
