<?xml version="1.0" encoding="UTF-8"?>
<!DOCTYPE svg PUBLIC "-//W3C//DTD SVG 1.1//EN" "http://www.w3.org/Graphics/SVG/1.1/DTD/svg11.dtd">
<!-- Creator: CorelDRAW X7 -->
<svg xmlns="http://www.w3.org/2000/svg" xml:space="preserve" width="608.01mm" height="100mm" version="1.1" style="shape-rendering:geometricPrecision; text-rendering:geometricPrecision; image-rendering:optimizeQuality; fill-rule:evenodd; clip-rule:evenodd"
viewBox="0 0 60801 10000"
 xmlns:xlink="http://www.w3.org/1999/xlink">
 <defs>
  <style type="text/css">
   <![CDATA[
    .fil1 {fill:#322B2A}
    .fil0 {fill:#E62129}
   ]]>
  </style>
 </defs>
 <g id="Layer_x0020_1">
  <metadata id="CorelCorpID_0Corel-Layer"/>
  <g id="_564594992">
   <path class="fil0" d="M30560 5004c0,977 331,2044 888,2779 337,445 638,819 1070,1163 244,195 580,495 912,523 -105,-450 -481,-1062 -677,-1503 -455,-1022 -582,-827 4,-1722 67,-102 17,-42 88,-124 78,333 1520,3340 1754,3827 368,0 634,53 1063,53 -42,-183 -186,-443 -255,-595 -105,-230 -182,-387 -287,-617 -87,-191 -186,-395 -286,-617l-869 -1842c-120,-241 -535,-1022 -535,-1272 0,-132 429,-722 531,-797 62,264 197,462 305,705l1451 3120c171,378 765,1447 796,1809 217,0 312,-33 501,-84 216,-58 264,-113 455,-129 -14,-170 -61,-248 -133,-399 -67,-142 -127,-263 -193,-391l-371 -798c-121,-260 -244,-532 -367,-802l-1672 -3590c-92,-198 -187,-338 -187,-504 0,-349 342,-494 425,-850 209,152 1080,2197 1241,2532 79,164 120,297 193,445l590 1271c51,103 48,78 109,210l702 1530c120,260 338,607 407,868 310,-72 644,-355 797,-585 -148,-280 -261,-570 -413,-861 -79,-150 -131,-271 -201,-438 -545,-1307 -1343,-2752 -1899,-4053 -142,-334 -268,-605 -411,-918 -450,-986 -650,-1001 -17,-1827 71,-94 28,-38 71,-88 109,466 425,972 628,1392l1090 2365c494,981 898,2034 1407,3005l330 732c445,-298 1010,-1805 1010,-2604 0,-1355 -212,-2182 -956,-3242 -1358,-1936 -4073,-2646 -6220,-1596 -259,127 -528,290 -759,464 -129,98 -202,151 -328,257l-601 621c-68,76 -84,78 -148,171 -601,867 -1033,1909 -1033,3006z"/>
   <path class="fil1" d="M3348 8034c-290,0 -669,6 -903,-107 0,-266 39,-492 105,-692l262 -1014c42,-185 60,-193 96,-328 66,-249 124,-461 174,-676 583,0 1213,-52 1643,111 369,138 650,602 563,1134 -199,1222 -814,1572 -1940,1572zm425 -3296l-531 0c9,-401 282,-1127 357,-1503 71,-357 138,-855 376,-1005 319,-203 2216,-297 1515,1568 -98,261 -191,355 -373,530 -324,313 -730,410 -1344,410zm-2391 -2604c1295,0 1116,-260 371,2603l-597 2379c-280,830 44,918 -1050,918 -37,159 -92,302 -106,478 1418,0 2896,40 4307,2 3092,-85 3196,-3381 1008,-3563l0 -106c535,0 920,-246 1224,-477 135,-102 301,-297 386,-464 584,-1154 -142,-2258 -1876,-2249 -1204,7 -2410,1 -3614,1 -17,205 -53,209 -53,478z"/>
   <path class="fil1" d="M44432 8034c-1478,0 -1234,297 -774,-1731l763 -2957c65,-263 117,-461 179,-724 129,-549 284,-488 841,-488 1169,0 1293,1333 1226,2182 -17,215 7,339 -32,553 -139,760 -366,1571 -771,2205 -235,370 -846,960 -1432,960zm-3402 53c-19,226 -87,251 -106,478 939,0 1878,0 2817,0 1117,0 1664,-68 2435,-435 958,-456 1628,-1414 1882,-2423 258,-1025 331,-2063 -256,-2957 -481,-734 -1210,-1101 -2147,-1095l-3296 1c-117,500 -401,486 428,475 672,-9 407,318 71,1672l-987 3902c-124,428 -305,382 -841,382z"/>
   <path class="fil1" d="M50172 2134c930,0 995,-249 431,1761l-1029 3966c-146,264 -466,226 -784,226 -36,154 -71,324 -107,478l3189 0c11,-132 61,-383 107,-478 -1286,0 -968,-2 -567,-1683 142,-595 -71,-185 394,-615 205,-189 311,-309 545,-466 97,203 177,411 276,627 93,203 803,1663 807,1830 9,399 -465,307 -818,307 -14,175 -69,319 -106,478l3136 0c14,-176 69,-319 106,-478 -818,0 -833,-238 -1204,-1081 -134,-305 -1169,-2473 -1188,-2693 180,-48 231,-149 359,-279l1736 -1559c289,-219 503,-341 988,-341 46,-197 101,-239 106,-478l-2551 0c-57,244 -106,145 -106,478 189,0 638,-61 638,266 0,303 -621,834 -899,1068l-726 655c-9,7 -20,18 -28,26l-779 708c-134,136 -235,259 -385,360l700 -2755c133,-416 319,-328 841,-328 46,-197 101,-239 106,-478l-2976 0c-193,0 -208,287 -212,478z"/>
   <path class="fil1" d="M24926 5164l0 0zm0 0c30,-357 143,-597 208,-909 57,-272 144,-622 223,-893 359,-1229 155,-1228 1057,-1228 57,-245 107,-145 107,-478l-3030 0c-55,116 -102,306 -106,478l638 0c269,311 144,191 -14,943 -187,894 -574,2177 -797,3136l-426 1594c-146,268 -402,227 -783,227 -45,546 -485,478 1169,478 620,0 1240,0 1861,0 55,-116 102,-306 106,-478 -179,0 -565,34 -715,-30 -41,-17 -142,-18 -158,-197 -18,-195 263,-1192 318,-1391 176,-637 62,-281 707,-941 141,-145 42,47 114,-152l159 0 673 1559c629,1238 356,1152 -460,1152 -6,240 -54,211 -54,478l3030 0c55,-116 102,-306 106,-478 -276,0 -438,-15 -623,-122 -218,-126 -439,-707 -538,-949l-1114 -2447c-26,-54 -37,-95 -63,-150 132,-88 213,-185 332,-306 64,-64 92,-95 161,-157l144 -121c9,-7 21,-17 30,-24 8,-7 20,-17 29,-24 131,-111 201,-189 326,-312l256 -222c8,-7 20,-18 28,-25 462,-418 944,-1041 1776,-1041 8,-334 216,-428 -50,-477l-2395 -1c-55,116 -102,306 -106,478 424,0 380,-13 638,160 0,424 -133,486 -420,749l-1586 1443c-153,155 -209,186 -370,321 -155,130 -224,247 -388,357z"/>
   <path class="fil1" d="M15838 2134c154,0 375,-16 520,11 584,108 276,768 70,1483l-855 3237c-426,1640 -1155,782 -1245,1477 -37,285 426,170 1138,170 461,0 921,0 1382,0 46,-198 101,-239 106,-478 -495,0 -903,-286 -903,-745 0,-394 874,-3281 1062,-4092l613 1301c111,240 198,415 309,647 497,1039 1063,2396 1576,3367l532 0 1081 -4712c152,-511 151,-1349 742,-1597 56,-24 432,-35 431,-417 -1,-110 69,-130 -128,-130l-2020 0c-202,0 -212,267 -212,478 1401,0 715,1084 314,3025 -74,361 -176,756 -261,1121 -56,-65 -27,-20 -89,-124 -22,-37 -59,-115 -71,-142 -49,-112 -64,-173 -128,-297l-266 -584c-169,-407 -390,-807 -562,-1193l-539 -1161c-654,-1403 -76,-1123 -2384,-1123 -212,0 -163,265 -213,478z"/>
   <path class="fil1" d="M11161 3569c0,444 66,698 116,1106l150 1126 -1701 0c53,-197 523,-898 668,-1139 119,-199 548,-1034 767,-1093zm-4039 4465c-6,240 -53,211 -53,478l2232 0c192,0 197,-291 212,-478 -1560,0 -268,-1292 -159,-1701l2126 0c95,409 159,931 159,1435 0,317 -471,266 -797,266 -17,205 -53,209 -53,478l2870 0c193,0 208,-288 212,-478 -1020,0 -766,-313 -918,-1208 -49,-289 -63,-492 -99,-857l-577 -4313 -638 0c-531,793 -1043,1753 -1541,2497l-2088 3387c-212,252 -457,484 -888,494z"/>
   <path class="fil1" d="M57453 2134c773,0 1054,-139 805,699 -55,184 -74,205 -114,418l-1165 4574c-127,314 -387,262 -802,262 -19,226 -87,251 -106,478l3189 0c37,-159 92,-303 106,-478 -1222,0 -1002,-10 -561,-1784l790 -3143c31,-133 67,-173 112,-366 91,-391 52,-374 244,-660l744 0c19,-227 87,-251 106,-478l-3295 0c-5,240 -53,211 -53,478z"/>
  </g>
 </g>
</svg>
