<?xml version="1.0" encoding="UTF-8"?>
<!DOCTYPE svg PUBLIC "-//W3C//DTD SVG 1.1//EN" "http://www.w3.org/Graphics/SVG/1.1/DTD/svg11.dtd">
<!-- Creator: CorelDRAW X7 -->
<svg xmlns="http://www.w3.org/2000/svg" xml:space="preserve" width="291.72mm" height="100mm" version="1.1" style="shape-rendering:geometricPrecision; text-rendering:geometricPrecision; image-rendering:optimizeQuality; fill-rule:evenodd; clip-rule:evenodd"
viewBox="0 0 29172 10000"
 xmlns:xlink="http://www.w3.org/1999/xlink">
 <defs>
  <style type="text/css">
   <![CDATA[
    .fil4 {fill:black}
    .fil3 {fill:#008E48}
    .fil1 {fill:#00AD49}
    .fil5 {fill:#00C932}
    .fil0 {fill:#482DB8}
    .fil14 {fill:#4948C6}
    .fil7 {fill:#4E6AE4}
    .fil12 {fill:#509CEC}
    .fil6 {fill:#7B352A}
    .fil10 {fill:#86F703}
    .fil2 {fill:#C23917}
    .fil13 {fill:#C73F00}
    .fil8 {fill:#F0672F}
    .fil9 {fill:#F23C00}
    .fil11 {fill:#F28170}
   ]]>
  </style>
 </defs>
 <g id="Layer_x0020_1">
  <metadata id="CorelCorpID_0Corel-Layer"/>
  <g id="_508418968">
   <path class="fil0" d="M22169 3295c15,148 476,894 585,1104 350,679 814,1465 1195,2158 114,206 534,905 577,1075 -132,-119 -1973,-2781 -2166,-3057 -111,-161 -614,-918 -715,-998l-502 -73c-155,-16 -326,-40 -489,-51l2 22 1500 1657c406,404 1163,1317 1514,1649 228,216 828,966 1020,1089l-1731 -5584c-82,55 -320,400 -406,512 -124,161 -257,353 -384,497z"/>
   <path class="fil1" d="M27584 3464c-416,1030 -864,2045 -1290,3076l-1271 2995c-70,-65 -21,9 -36,-89 -1,-4 7,-66 8,-74 -66,84 -136,491 -140,628l4244 -6642 -1515 106z"/>
   <path class="fil2" d="M24820 739c-84,98 -39,338 -39,485l29 3218c0,91 1,180 4,271 8,299 -10,225 -63,244l30 284 26 101c100,-141 1024,-3313 1156,-3759 123,-413 272,-842 377,-1261 -62,-81 5,-43 -106,-38l-1414 455z"/>
   <path class="fil3" d="M24995 9372c-1,8 -9,70 -8,74 15,98 -34,24 36,89l2035 -6259c-16,-89 -523,-1081 -597,-1149 -51,110 -1473,7098 -1466,7245z"/>
   <path class="fil4" d="M7821 9390c-61,52 -129,23 -167,81 48,71 837,67 892,0 -54,-66 -68,-38 -176,-38 11,-359 37,-1301 -63,-1563 -82,-215 -253,-307 -550,-274 -301,33 -350,207 -486,330 -131,-208 -161,-342 -514,-335 -362,8 -350,186 -550,302l-8 -292 -709 59c45,43 -103,44 191,56l4 1713c-108,4 -149,-24 -203,42 47,36 -7,11 63,29l846 -29c-85,-90 16,6 -72,-38l-86 -43c10,-302 3,-616 2,-919 0,-274 -13,-656 279,-662 317,-7 238,432 238,689 0,302 9,620 -3,919l-118 33c-6,2 -18,17 -22,10 -4,-6 -15,6 -22,11 38,28 6,14 65,29l726 6c9,-2 17,-4 24,-6l-96 -83c-13,-299 -2,-617 -3,-919 0,-260 -10,-640 240,-684 356,-62 278,408 278,657 0,306 -3,613 0,919z"/>
   <path class="fil5" d="M27058 3276l-2035 6259 1271 -2995c426,-1031 874,-2046 1290,-3076 -30,-118 -99,-301 -82,-418l1511 -64c44,-13 35,-13 58,-27l-2257 -981c11,232 594,866 628,1076 -109,82 -272,120 -384,226z"/>
   <path class="fil4" d="M850 8026l-1 -1401c539,-131 591,248 588,683 -3,434 -38,869 -587,718zm-848 -1448c74,51 113,18 229,40l-7 2808c-60,7 -170,-6 -224,45 85,74 419,36 538,36 136,0 463,26 544,-36 -49,-40 -77,-34 -111,-39 -25,-4 -80,-2 -122,-6l2 -1294c423,-54 742,32 1039,-229 215,-189 361,-579 184,-939 -139,-281 -462,-414 -860,-425l-947 0c-230,-6 -208,-20 -265,39z"/>
   <path class="fil4" d="M15724 7976c586,-58 1054,159 1046,739 -8,602 -453,781 -1060,719l14 -1458zm-11 -1340c527,-77 996,136 1011,644 16,550 -478,699 -1014,617l3 -1261zm-548 -79c-263,-5 -192,-1 -220,48 85,38 210,16 329,29l-7 2801c-122,10 -301,-35 -326,63 91,45 969,18 1145,18 386,0 658,-31 905,-248 202,-178 360,-513 196,-871 -172,-373 -584,-367 -704,-469 817,-123 836,-915 394,-1196 -255,-162 -568,-173 -900,-174l-812 -1z"/>
   <path class="fil6" d="M24781 5241l-30 -284 -582 -4127c-191,-103 -1146,-468 -1227,-577 -29,97 361,1049 428,1232 153,422 1328,3633 1411,3756z"/>
   <path class="fil7" d="M20656 3475l-2 -22 6 -323 1059 75 -74 372c101,80 604,837 715,998 193,276 2034,2938 2166,3057 -43,-170 -463,-869 -577,-1075 -381,-693 -845,-1479 -1195,-2158 -109,-210 -570,-956 -585,-1104 -122,13 -301,-35 -405,-97 23,-48 2,-8 31,-50l804 -977c-25,-34 40,-39 -46,-23 -230,66 -1549,794 -1925,969 -1,132 -16,224 19,338 2,5 5,14 9,20z"/>
   <path class="fil4" d="M23650 9498c-26,-81 48,-40 -99,-60 -271,-36 -69,97 -551,-501 -95,-117 -317,-384 -363,-490 138,-105 233,-218 369,-356 249,-254 371,-195 477,-269l-47 -19c-46,-13 -614,-43 -699,19l84 34c69,18 86,1 181,48 -26,136 -646,730 -775,816l-14 -2267c-472,189 -486,37 -629,125 46,38 -75,29 97,49 46,6 99,0 161,8l-6 2800c-129,11 -221,-35 -249,63 75,36 797,33 874,0 -27,-82 56,-46 -227,-61 -36,-338 -58,-616 168,-707 96,223 435,518 494,709 -116,3 -172,-34 -197,59 75,36 877,33 951,0z"/>
   <path class="fil4" d="M9806 8501c4,151 24,621 -16,735 -57,165 -333,310 -464,127 -16,-24 -375,-978 480,-862zm-612 -734c138,-102 423,-175 547,-9 76,102 94,519 51,665 -535,30 -1144,76 -1063,696 34,256 215,394 465,430 446,66 516,-115 647,-209 73,138 145,237 377,218 164,-13 312,-131 317,-269 -136,-9 -43,42 -207,17 -226,-532 424,-1734 -841,-1713 -531,8 -721,384 -580,620 86,143 362,141 433,-1 123,-248 -97,-313 -146,-445z"/>
   <path class="fil4" d="M13015 8489c5,140 21,627 -10,734 -48,167 -317,322 -461,141 -98,-123 -112,-456 -66,-639 60,-238 310,-224 537,-236zm-609 -729c126,-93 407,-163 536,-11 100,119 83,493 70,673 -518,-2 -1148,92 -1070,699 64,497 790,586 1088,224 128,99 117,241 406,213 148,-14 323,-150 304,-253l-201 6c-240,-584 417,-1735 -834,-1718 -205,3 -391,59 -501,161 -82,76 -187,296 -84,463 79,129 353,146 432,-9 125,-245 -105,-318 -146,-448z"/>
   <path class="fil4" d="M20065 9437c-26,-200 -8,-510 -8,-723 0,-236 -41,-469 74,-632 223,-316 740,-555 741,64l-8 1289c-232,20 -203,-24 -235,74 270,13 613,27 874,-11 -24,-96 -125,-53 -245,-63 -47,-403 90,-1269 -106,-1542 -118,-162 -333,-251 -603,-204 -111,19 -202,71 -280,126 -110,77 -109,146 -213,202l-1 -326c-97,2 -195,31 -298,34 -92,2 -176,-16 -262,8 -76,21 -20,-6 -68,35 77,47 148,29 247,38l-2 1630 -179 7c-53,9 -36,11 -65,28 81,72 579,57 715,48 35,-2 45,-3 78,-12 74,-20 27,0 71,-36 -76,-42 -133,-29 -227,-34z"/>
   <path class="fil8" d="M24433 538c-52,85 -196,210 -264,292l582 4127c53,-19 71,55 63,-244 -3,-91 -4,-180 -4,-271l-29 -3218c0,-147 -45,-387 39,-485 -107,4 -114,-22 -195,-79 -11,-7 -69,-44 -80,-55 -52,-49 -37,-4 -52,-86 -67,13 -32,-15 -60,19z"/>
   <path class="fil4" d="M4009 9429c-104,4 -150,-24 -199,42 38,30 -2,12 59,28l955 9 3 -74 -270 -7c-32,-266 -8,-724 -7,-1011 2,-291 64,-614 312,-674 -185,664 545,623 543,187 -2,-250 -162,-364 -432,-331 -253,30 -334,251 -427,310l1 -301 -731 53c41,38 -105,44 188,56l5 1713z"/>
   <path class="fil4" d="M2566 8065c0,-223 25,-428 265,-400 262,31 214,457 207,742l-469 2 -3 -344zm1027 766c-23,29 -15,15 -37,60 -12,23 -15,33 -26,61 -305,811 -1144,680 -953,-471l1018 -7c-71,-1288 -1562,-1072 -1604,50 -44,1176 1372,1379 1613,467 19,-74 17,-110 -11,-160z"/>
   <path class="fil4" d="M10696 7687c7,3 16,5 22,6l156 48c10,397 -46,1194 39,1526 133,515 897,269 943,-29 -162,-15 -76,193 -380,136 -91,-238 -67,-1325 -47,-1663l246 -4c97,-16 23,2 65,-20 -35,-30 -32,-38 -142,-44 -38,-3 -114,4 -156,5 -66,-237 38,-682 -34,-881 -153,48 -14,194 -252,560 -222,339 -383,208 -460,360z"/>
   <path class="fil4" d="M18648 8590c171,1022 -492,898 -607,793 -213,-194 -181,-930 607,-793zm-698 -660c93,-144 385,-261 593,-131 175,108 116,476 115,704 -274,19 -544,32 -761,129 -754,332 -228,1206 536,859 119,-55 163,-126 248,-181 94,147 136,255 378,243 163,-8 342,-142 348,-266 -153,15 -78,143 -293,147 -172,-146 -97,-659 -97,-936 0,-442 19,-582 -321,-743 -264,-124 -654,-91 -852,67 -259,207 -247,640 114,527 237,-121 3,-363 -8,-419z"/>
   <path class="fil9" d="M24433 538c28,-34 -7,-6 60,-19 176,-28 1507,-420 1608,-484l-1877 4 -999 -6c-32,21 -6,8 -28,48l1236 457z"/>
   <path class="fil10" d="M27584 3464l1515 -106 72 -13 1 -336c-36,-31 -1,-11 -49,-35 -29,-15 -22,-8 -52,-19 -23,14 -14,14 -58,27l-1511 64c-17,117 52,300 82,418z"/>
   <path class="fil11" d="M24493 519c15,82 0,37 52,86 11,11 69,48 80,55 81,57 88,83 195,79l1414 -455c111,-5 44,-43 106,38 5,-6 6,-26 6,-22l-47 -151c-47,-65 -57,-82 -89,-141 -264,-5 -1881,-26 -1986,31l1877 -4c-101,64 -1432,456 -1608,484z"/>
   <path class="fil12" d="M22553 2148c86,-16 21,-11 46,23l-804 977c-29,42 -8,2 -31,50 104,62 283,110 405,97 127,-144 260,-336 384,-497 86,-112 324,-457 406,-512l-97 -81c-27,-16 -71,-36 -105,-54 -105,-56 -117,-86 -204,-3z"/>
   <path class="fil1" d="M26461 2127c74,68 581,1060 597,1149 112,-106 275,-144 384,-226 -34,-210 -617,-844 -628,-1076 -59,-26 -202,36 -273,79l-80 74z"/>
   <path class="fil13" d="M22942 253c81,109 1036,474 1227,577 68,-82 212,-207 264,-292l-1236 -457c22,-40 -4,-27 28,-48 -130,11 -88,-22 -162,56 -14,15 -97,129 -121,164z"/>
   <path class="fil14" d="M20654 3453c163,11 334,35 489,51l502 73 74 -372 -1059 -75 -6 323z"/>
  </g>
 </g>
</svg>
