<?xml version="1.0" encoding="UTF-8"?>
<!DOCTYPE svg PUBLIC "-//W3C//DTD SVG 1.1//EN" "http://www.w3.org/Graphics/SVG/1.1/DTD/svg11.dtd">
<!-- Creator: CorelDRAW X7 -->
<svg xmlns="http://www.w3.org/2000/svg" xml:space="preserve" width="416.51mm" height="100mm" version="1.1" style="shape-rendering:geometricPrecision; text-rendering:geometricPrecision; image-rendering:optimizeQuality; fill-rule:evenodd; clip-rule:evenodd"
viewBox="0 0 41651 10000"
 xmlns:xlink="http://www.w3.org/1999/xlink">
 <defs>
  <style type="text/css">
   <![CDATA[
    .fil1 {fill:#323232}
    .fil2 {fill:#999999}
    .fil0 {fill:#FE0000}
   ]]>
  </style>
 </defs>
 <g id="Layer_x0020_1">
  <metadata id="CorelCorpID_0Corel-Layer"/>
  <g id="_511742272">
   <path class="fil0" d="M1234 5112l176 0c4,172 101,584 155,727 108,288 318,613 568,783 106,73 167,126 285,185 656,328 1486,217 2011,-292 27,-26 36,-33 62,-56 171,-156 327,-375 424,-604 58,-135 154,-579 168,-743l1204 0c0,503 -138,1033 -427,1423 -845,1137 -2303,1406 -3519,643 -154,-97 -224,-173 -354,-292 -225,-207 -370,-492 -499,-765 -118,-251 -254,-657 -254,-1009zm-705 0c205,0 158,7 272,638l159 517c192,443 213,594 556,1031 154,198 233,320 415,495l256 215c54,37 70,41 126,79l445 260c635,292 1003,349 1767,349 568,0 1239,-194 1731,-472 58,-33 64,-46 125,-81 746,-427 1291,-1144 1565,-1960l94 -347c75,-303 98,-367 98,-724l1440 0c0,350 -38,744 -124,1052l-279 807c-131,307 -413,720 -634,982 -548,648 -1570,1262 -2384,1436 -655,139 -1320,183 -1986,71 -868,-145 -1874,-639 -2429,-1301 -55,-66 -55,-80 -119,-146 -75,-78 -57,-53 -115,-149 -277,-447 -561,-843 -721,-1394 -107,-368 -258,-954 -258,-1358zm5964 0l1439 0c0,385 -44,431 -104,747 -52,273 -207,684 -349,914 -37,59 -42,52 -85,121 -298,482 -736,905 -1233,1177 -73,40 -59,36 -134,71 -1177,539 -2607,537 -3652,-235 -506,-373 -895,-816 -1149,-1406 -71,-163 -187,-471 -219,-633 -46,-231 -125,-511 -125,-756 303,0 126,196 293,676 282,807 689,1472 1532,1817l509 167c556,145 1316,-5 1789,-241 868,-434 1340,-1198 1475,-2138 17,-114 33,-232 13,-281zm-1469 -206l-1205 0c0,-477 30,-710 260,-1150 283,-540 631,-872 1189,-1132 500,-232 1186,-266 1741,-144 397,87 1038,470 1292,853l223 364c19,37 27,62 47,100 173,340 302,705 302,1109l-177 0c-50,-599 -260,-1208 -769,-1551 -297,-201 -633,-371 -1046,-349 -1146,61 -1770,853 -1857,1900zm-1586 0l-1264 0c0,-936 397,-1790 1050,-2446l845 -594c55,-27 89,-39 142,-65 923,-443 2263,-398 3168,75 257,134 392,230 617,411 338,273 711,810 881,1234 103,256 242,679 298,965 21,107 6,300 50,391 -295,0 -114,-85 -312,-687 -77,-236 -141,-498 -300,-728 -380,-546 -893,-1036 -1569,-1193 -625,-145 -783,-115 -1348,-11 -1095,202 -2007,1272 -2080,2474 -9,139 -39,174 -178,174zm-2909 0c0,-451 61,-826 172,-1208l233 -649c46,-80 46,-92 87,-178 118,-250 468,-736 665,-950 19,-20 28,-30 42,-46 57,-63 88,-90 149,-145 596,-547 1466,-1039 2261,-1147 774,-106 665,-149 1530,-81 360,28 991,204 1315,360l349 179c804,473 1469,1166 1822,2056l214 608c29,79 39,166 56,238 22,88 44,139 58,207 20,100 25,155 41,253 29,176 55,281 55,503l-177 0c0,-496 -351,-1599 -671,-2031 -438,-591 -903,-1056 -1612,-1326 -1109,-423 -2568,-305 -3496,368 -239,173 -399,275 -618,499 -63,64 -69,80 -120,144 -392,487 -758,1008 -830,1698 -16,157 -60,322 -78,479 -16,139 28,143 -95,170 -197,41 -1091,-126 -1352,-1zm-529 -3907l0 8050c0,144 194,550 407,710 37,28 201,127 239,143 244,100 1069,57 1440,57l5230 0c696,-2 1918,194 2362,-252 5,-4 11,-10 15,-15 183,-192 325,-473 325,-761l0 -7903c0,-282 -152,-592 -352,-764 -218,-188 -478,-264 -882,-264l-7462 0c-371,0 -714,46 -918,227 -112,99 -195,179 -268,320 -94,183 -55,158 -106,334 -22,74 -30,-24 -30,118z"/>
   <path class="fil1" d="M29290 5523l0 -470 -910 0 0 3790 969 0c0,-493 -61,-2334 118,-2702 178,-366 938,-671 1071,73 41,230 17,1835 16,2247 -2,477 -171,382 999,382l0 -2057c0,-363 77,-721 351,-912 280,-195 713,-136 794,237 96,448 59,2203 59,2732l970 0 0 -2732c0,-429 -235,-828 -563,-994 -394,-200 -989,-173 -1348,82 -221,158 -317,291 -410,354 -63,-236 -497,-559 -852,-559 -393,0 -492,-31 -865,193 -170,101 -162,119 -307,251l-92 85z"/>
   <path class="fil1" d="M23121 8197c-649,0 -672,-626 -388,-829 186,-134 952,-250 1093,-317 0,220 11,628 -108,803 -113,168 -333,343 -597,343zm-1440 -2116l882 177c164,-707 966,-493 1110,-376 125,101 153,276 153,493 -85,20 -83,33 -147,58 -71,28 -98,28 -188,48 -142,32 -198,61 -353,87 -422,73 -1042,195 -1306,515 -343,416 -373,993 -37,1412 349,435 797,497 1339,390l419 -168c175,-112 281,-235 361,-256 12,139 76,229 88,382l999 0c-86,-370 -207,-217 -205,-1087 0,-517 59,-1720 -105,-2158 -77,-205 -301,-385 -499,-470 -427,-184 -787,-134 -1277,-134 -168,0 -313,58 -452,106 -450,156 -782,665 -782,981z"/>
   <path class="fil1" d="M35959 8197c-547,0 -708,-543 -412,-795 218,-186 851,-223 1117,-351 0,488 54,804 -345,1035 -85,49 -236,111 -360,111zm-1439 -2116l881 177c87,-181 136,-500 617,-500 100,0 378,46 451,78 186,84 195,305 195,480 0,104 -136,124 -212,140l-933 213c-374,66 -749,237 -954,574 -96,159 -160,371 -160,572 0,1102 1378,1414 2117,827 80,-64 148,-126 231,-181l117 382 970 0c-16,-183 -209,-309 -206,-1087 1,-441 0,-882 0,-1322 0,-497 -1,-787 -235,-1058 -402,-467 -1554,-464 -2098,-276 -135,46 -275,136 -363,224 -192,191 -397,497 -418,757z"/>
   <path class="fil1" d="M18450 5553c0,-629 170,-500 -852,-500 -68,0 -88,21 -88,88l0 3614c0,67 20,88 88,88l911 0c0,-578 -81,-2303 141,-2708 58,-107 145,-191 245,-255 277,-179 687,-168 877,142 81,131 117,428 117,647l0 2174 999 0c0,-639 33,-2211 -37,-2783 -32,-255 -38,-324 -144,-532 -73,-144 -184,-251 -329,-347 -428,-282 -1073,-250 -1519,17 -189,113 -251,249 -409,355z"/>
   <path class="fil1" d="M11487 6081c0,353 48,541 286,801 323,353 1309,508 1765,644 431,129 346,742 -582,642 -195,-21 -303,-63 -420,-169 -114,-104 -130,-251 -197,-390 -157,0 -285,33 -415,55l-439 61c-159,20 -145,106 -41,309 34,65 45,98 78,157 108,187 309,382 488,481 754,419 2169,395 2612,-426 311,-577 196,-1168 -414,-1507 -286,-158 -802,-266 -1140,-358 -199,-54 -834,-141 -622,-484 42,-69 101,-90 178,-119 245,-92 698,-75 908,80 138,101 156,244 188,311 310,-6 606,-140 911,-146 0,-296 -213,-563 -431,-745 -446,-371 -1459,-348 -1938,-185 -204,69 -226,95 -376,212 -200,154 -399,439 -399,776z"/>
   <path class="fil1" d="M38339 6140c0,998 1191,1178 2055,1382 500,118 291,766 -532,652 -337,-47 -612,-205 -642,-565 -231,0 -426,55 -638,96 -274,54 -471,-81 -273,316 160,322 391,607 753,745 687,263 1717,261 2252,-297 333,-347 432,-880 239,-1283 -155,-322 -426,-420 -716,-548 -226,-100 -983,-264 -1346,-386 -397,-134 -216,-523 229,-523 266,0 812,-34 852,440 324,-7 625,-139 940,-146 -11,-496 -612,-1029 -1293,-1029 -582,0 -622,-48 -1123,111 -147,46 -271,122 -369,219 -213,213 -388,489 -388,816z"/>
   <path class="fil1" d="M26588 5523l0 -470 -911 0 0 3790c1161,0 1001,90 999,-353l0 -1351c-2,-348 22,-870 251,-1101 305,-307 741,-8 836,14l294 -881c-373,-197 -850,-300 -1184,21 -138,133 -216,280 -285,331z"/>
   <polygon class="fil1" points="15600,8843 16570,8843 16570,5053 15600,5053 "/>
   <path class="fil2" d="M12104 1792c0,-930 764,-685 764,-147 0,233 26,735 -382,735 -125,0 -238,-101 -291,-180 -66,-99 -91,-245 -91,-408zm-499 970l470 0 0 -235c322,215 129,264 675,264 354,0 647,-513 647,-1028 0,-241 -44,-502 -183,-699 -254,-359 -798,-424 -1110,-65l0 -940 -499 0 0 2703z"/>
   <path class="fil2" d="M17804 2762l528 0c0,-447 -75,-664 206,-852l441 852 558 0 -676 -1264c68,-45 109,-87 164,-159 88,-115 428,-454 453,-546l-617 0 -529 647 0 -1381 -528 0 0 2703z"/>
   <path class="fil2" d="M14396 2409c-343,0 -475,-489 352,-558 0,188 42,558 -352,558zm-705 -1058c179,0 224,59 381,59 158,0 31,-235 382,-235 255,0 294,65 294,323 -201,17 -672,131 -853,234 -480,271 -249,1059 207,1059 504,0 360,-4 705,-235 7,90 28,141 59,206l499 0c-30,-131 -64,-111 -88,-265 -175,-1136 363,-1733 -881,-1733 -406,0 -705,241 -705,587z"/>
   <path class="fil2" d="M16158 1028l0 -235 -470 0 0 1969c664,0 530,159 529,-911 0,-165 -21,-345 37,-463 129,-267 609,-368 609,169l0 1205 500 0 0 -1528c0,-260 -271,-470 -646,-470 -314,0 -379,144 -559,264z"/>
   <polygon class="fil1" points="15600,4583 16570,4583 16570,3643 15600,3643 "/>
  </g>
 </g>
</svg>
